<mxfile host="app.diagrams.net" agent="Mozilla/5.0 (Windows NT 10.0; Win64; x64) AppleWebKit/537.36 (KHTML, like Gecko) Chrome/132.0.0.0 Safari/537.36" version="26.1.0">
  <diagram name="페이지-1" id="ViQJsDWz5i7oCnqnO4q8">
    <mxGraphModel dx="1195" dy="643" grid="1" gridSize="10" guides="1" tooltips="1" connect="1" arrows="1" fold="1" page="1" pageScale="1" pageWidth="827" pageHeight="1169" math="0" shadow="0">
      <root>
        <mxCell id="0" />
        <mxCell id="1" parent="0" />
        <mxCell id="V8umVKSYSAPdXaHAKpyf-2" value="" style="shape=image;verticalLabelPosition=bottom;labelBackgroundColor=default;verticalAlign=top;aspect=fixed;imageAspect=0;image=data:image/png,iVBORw0KGgoAAAANSUhEUgAAA4sAAALKCAYAAACbYMQeAAAAAXNSR0IArs4c6QAAAARnQU1BAACxjwv8YQUAAAAJcEhZcwAADsMAAA7DAcdvqGQAANrrSURBVHhe7N15fBT1/T/w1+yVO9mEQDwIBCEBIWiKtspXlK31RArUflHwTOuFSjWepVJlbT3RIraCeLWIKIoVuRX6q0IFEf1Wg4BH1RIIokYkm8291/z+SGaY/exusruZnd2E1/Px+Dyy+57PzH4+m8lk3vOZQ5JlWQYRERERERGRhkkMEBERERERETFZJCIiIiIiohBMFomIiIiIiCgEk0UiIiIiIiIKwWSRiIiIiIiIQjBZJCIiIiIiohBMFomIiIiIiCgEk0UiIiIiIiIKwWSRiIiIiIiIQjBZJCIiIiIiohBMFomIiIiIiCgEk0UiIiIiIiIKwWSRiIiIiIiIQjBZJCIiIiIiohBMFomIiIiIiCgEk0UiIiIiIiIKwWSRiIiIiIiIQjBZJCIiIiIiohBMFomIiIiIiCgEk0UiIiIiIiIKIcmyLIvBnnC5XPj222/R1tYmTiIioj4mPT0ddrsdRx11lDiJKGYrV66Ey+USw2ENHz4caWlpAABJksTJUfF6vWIooSRJgsViEcMJpfRRluW4vyeRuCzlvSzLMJlMSetjJGJ7YxFu3mT+HrXCtU0UTR2Ftm6q9FEPkb6D3trHTz75RAyF5XA4UFJSIoZjpkuy2NbWhvfeew+fffYZvv32W3EyERH1cXa7HaeeeipGjBgBu90uTiaKisPhQH5+flTrUE5ODux2OywWC0wmE0wmU9gdwq40NjYiEAiI4RDKcmPdZVISKIXVakVmZmZQHZE4T0+53e6Yl6ftb3ftEadH08fuiMvUxsJNi+b3GG4+UTR1oFMftaL53Gj6GE40yxYpSVSkPnb1u+iJePsYr2h/j3r9/SOKPoabR/Tdd9+JoRCbNm3CnDlzUFlZKU6KWY+TxW+//RYvv/xy1EcCiYio77Lb7ZgyZYouRzPpyONwOOB0OuFwOMRJIf7617/iwIEDyM7ORlZWFmw2W8SEUdmxFV+HS6S007vSXT3tzrRST9w5VT67q+VEo6vlhOujItIOv/hdddVX8bPD9THSvAgzXXwfjljH7XYjEAgEtVVslzKfEhOXoUyPNK+2js1mU/sYbjla4ZYV7eeIfVTqi9OUGML87sTXokjTrFYrMjIywrZb+x4R2q/oqo64PHFdFadHinUVRxffhbiuitO70l09Zbr42Y2NjWofu/puunLjjTeKoRCVlZVwOBzJTxa//fZbLF68mKecEhFRkClTpqCiokIME3UplmRx8eLFOHjwII455hgcc8wxyMnJCTqlLNzOnHbnTJZlNDU1dXmUXyHu8Ik7gaJIO4E2mw0ZGRlBMUVXy9OK5vOhqaeMZHRXPxbisrTvtX3UthWa7115Lc4br8bGRvj9fiDMd96TzxPbj87l2Gw2pKenhywn3LLDxURd1RF/j9pYJN1NV4j9ivR7VHS3XO331VW9cORu/h61y1Tarf0M8TPF90oMmr6mpaWF9DEc8bO762O49ikijSx2tTwtWZYxfvx4MRwiJZJFl8uFRYsWMVEkIqKwZsyYwWsZKSaxJIvPP/88GhoaMHToUAwdOhQFBQWwWq1itS41NTWpSYYRwu2AJxr7qD/2MTHYx+hEc+ZOSiSLixcvRk1NjRgmIiICOk9JraqqEsNEEcWaLDY2NmL48OEoKytDv379YLVaozo6rxBPe0u0ZOycso/6Yx8Tg32MTv/+/cVQCD2TxbgenVFTU8NEkYiIuuRyufDZZ5+JYaKEkCSJhYWFpc8Xo8U1srhy5UpUV1eLYZw9fjCOL+snhomIqI/bf6ARK9Z9IYZRUlKiy5FNOjL0ZGSxsLCQI4thsI/6Yx8Tg32MTmFhoRgKkfSRRT4eg4iSRdnIyrIcVKKNRZomvo9UtMRpYr2u3keKxVMiLSdSXJymvA5XXxEp3h3+vyCjxJIkEhFRdJgsElHKUxIU5Y5+gUAgqPj9frVop/v9/pDXyk+fzxcyf6S6Yj2xfqRliG0R6/h8vpDliEVsi/ZnpNfivOGK0n/tvNrvRLsMf2dftIlitEljW1sbH61ERETUS8WVLBIRGU1JXHw+H7xeL9rb29Ha2qqWtrY2tLW1obm5GW1tbUHxlpYWNabMJ9bRvg9XJ9x7cf5I08V62vfafrS0tISdJ9z79vb2kGWJ9cXPC7ccsb7yWtsWpZ1erzcoeSRKJVwniYj0x2SRiFKaMjqnJIrt7e1oaWlBc3Mzmpqa0NTUhObmZjQ2NqKpqQktLS1obGxU3ys/lSK+18a182hLpHnF+tp2NDU1we12h63f3Nwc1H5l/paWlpC64eYPt2yxTmNjI9xud9j2d7fsps42Kj+bm5vV5NHj8agjkdGOLhIREVHvFNcNbpxOpxgCeIMbItKZkowoiaLH41FHy5RRLuV0SanzIbkmkynovUJ7PZPcxcNvlXmU+ZV6ymtxXrGOMq/yU9sWbZvEebS6+syu+mQymcIuD130K1wdCH0wm82wWq2wWq1IT09Heno6rFYrLBYLTCYTJEmKeIMbAKiqqoLdbhfDRCHiucHNiBEjUFpayhvcRMA+6o99TAz2MTpG3+DGkGTR3diOTz7/AZAAyAAkQIIEGZodk8732rgYU376vB3X+UD5fyD2QPM56nRtTJwmEucTyYDFYoHFYhGnhG2vpFlIV33Tzi8uTyRDBmSgvb39cDBcHyP1VZkmEj9KrKOdr/N1WlqaOp/4e1Viikj9gfDdIYZlqetEoPMhp5H6Ln6stp5CfC/GxGVoWMwd64T4+4SmL5F+auuI9SMJ9zlyQIbH4wltZ7i+Krr6rsJ9b4ouvrf09PSQfiJCmxHm+9HGZFnuOO20rR2tba04acxJyLPnwefzQQ50JJLi5we1X0P9/M7pEjQJpbiMTkG/h846QctR5tF+j5F+aj9TnB6mfSHLVgjTxflkWVh3xM/Szi8uW9EZlyQJkknqWL+tFjTWfwmL2a8mjMrOOZNF0kM8ySLvhto19lF/7GNisI/R6ZPJYu0BN/6++nOYTKago9FAfHcvU06F6ooc4cg5hGld1YNmulgv0goWqX4iBAIBNDY2imHD5eTkqL9PkbJ6ab9v7Xu9tLS0wOv1imFDfg+KtLQ0pKeni+GIbYgUj5csy/D5fGhpaREnxaynbcvLy1NfR1pWpLjI7/erp542NTXhN7/5DUqHDYLsbxWrUoJZ0vph94cvA4EGZGRkICMjA1arFSaTicki6SLeZHH48OEoLCyExWKJarui0GPHLRaR9h0SiX3UH/uYGOxjdPpssrhi7RdIT09HdnY2srOzkZaWFtMGXStSYmCkZKxgomiTxWh3ymOhXWZXyaJRojmAkGjp6ekdo6xJ5PP50NzcLIYNp00We0q5TrGpqQkNDQ249NJLcewAP1obPxerUoIVHDsJH773PExyI7Kzs5GZmQmbzcZkkXQTb7JYVlaG/v37M1kMg33UH/uYGOxjdPpksrj/QCNWvvEVcnNzcdRRR6GoqAjZ2dkwm81i1RDajb7S1EQli9oRQe3XIr4HAKvViszMzKBYrMItt6u4yO/3o6mpKSgW7bwicb7u3isxAMjOzu5Rshhu2V0JV7+1tRVer1eNR/pddiWeebSUa7minTfez+lKNMliuM8VY8rvVvw+tcLFFGKy2FXd7vh8PrS2tqKpqQmHDh3CT3/6U/TLbWaymAQFx07CB1v+CgQakJeXh6ysLKSlpTFZJN30JFnkaajhsY/6Yx8Tg32MTp9NFldv2IPCwkKUlJSgpKQEeXl5MR0BlDUjWUqyqN2RFetq4+L77mg/KxKr1YqMjIwu6ynLifT52q9eO037+dp5xXZFGlkU68Wiq7aKMYVeI4uRPjsa4Q4gaL//cN9nV7rqr5a2XqTTUBHn8uLh9Xq7PQ1V/D66ex0rWZbVZDHeZSjkzlNr29ra0NDQgEOHDuGEE05Alu0HJotJUHDsJGzb/DSkgBt2ux3Z2dlIT09nski66UmyyJHF8NhH/bGPicE+RqdPJ4tFRUUYNmwYhg4dioKCgrA3iIlGuMQgXvHuFHeVGBglUrKoFW//RMpqEm5Zubm5cScZsdaPRM91Il7JXifkzkdMiKPNen3HsSxHHFnsCa/Xi9bWVjQ2NuLgwYMoKytDurmOyWISFBw7Cds2PQ1J7kgWs7KykJGRwWSRdMNkUX/so/7Yx8RgH6NjdLLY8+GgKEmSBEmSYDKZ1GI2myGhPeZikrywmHy6FKvZHxKLpkhyaLuSUcR2iSXe/onFavZHXBY034VJ8oS0sasSa/1IRc91It5ikrwh7TKymCQPTPCEtCvS7y3WEstyxLbFXWRlHfEAcjtM8MS0I0iJIXc+0kSPMwqI9NLTHTAiIgpl2Mjimo01KCoqQmlpKYYNG4b8/HxYrVa01G+H33tInIWICHLnaaitra2HT0M9+VJkpns5spgE4siicrMys9nMkUXSRU9GFnnNYnjso/7Yx8RgH6PTZ0cWiYji1dMNK+lP2SGPZceciIiIehfDk0XuWBBRrJiYRG/Z8n9i/YbtYlhXymmoRKmE2wciIv0ZniwSEcUrEAiIIdLYV1sHn+k4/HtnCxrcXT9CpSekzrsMM2mkVKAkiVwXiYj0Z3iyqGzMeQSQiGLF7UbX9u3/DoMHD8bgwYOxa/cecbIulARRuWkZUbIxSSQiShzDkkVxYy6+JyIKRxnFoq4te/UtvPXON3j88cdRXV2Nf2zem5CEUZskMmEkIiLq2wxLFrU7F9zxI6JoMCmJzr7aOny5V8L8x5/A22+/jcWLF+PPf3kKf1rwj4SejsptORERUd9mWLKoUE5fIiKKBq+L695Tf3sDN998sxjG448/gUXPrhbDuuLvhoiIqO8yNFlUdiq4c0FE0dBeG3ekbjca3M3Yufu/2LJtZ8RRwm/rAigpKRHDKCkpwWdfNophAMC+/XXdLrc7R+rvhIiI6EghyXH8t3c6nWIIAHD2+ME4vqyfGMb+A41Ys7EGRUVFKCsrw3HHHYeCggJYrVa01G+H33tInIWICLIsw+fzoaWlBY2NjTh48CBO/PFlyEz3orXxc7F6n7Js+T+x7YP/onDAUDURrKmpwaEfvoHXcxDTp56JcWNHY+fu/+KjTzoefB9OVVUVbr7uFOTlZmHLtp14c+OH+Pq7dgwZMgwVFRVwuVyoqanBV19+jPPOOgHTp54pLkJVcOwkbNv8NKSAG3l5ecjJyUFaWhpMJhO+/qYJK9Z9Ic4CdLbBbreLYaIQDocDTqcTDodDnBTiySefhMvlwvDhwzF8+HD069cPVqtVrNalzMxMmEzGHTf3+Xxoa2sTwwnFPuqPfUwM9jE6aWlpYihEZWUlHA4HKisrxUkx61lr4xBHbhqXT79wo2rWi2r59qDhXU0IkzkTzofWqf16bd1/xCpEfY4ysniknML++3ufR3bBGCx9aQ3mz5+PqqoqVFVVYf78+Vjywit48OHn8NFuHx798yrs2r2ny0TMbrdj67ZduOKaR/DRbh8emPscVq1ai/nz56OyslJd7pq1b8GLEtzlfE5cRLAwm/Aj5fdCqUWWZQQCAQQCAfj9fvW9cup6NMVkMhlalHYbWcQ2JLqwj4kpYhsSXdjHxBSxDfEUoxn+icopZYneuXC7m/HC0uVq2bvva7FK0kgmK0yWzKiLaPWaDWq/3nnnA3EyUZ+ivcnNkeDhectw0SW/wZVXXilOUpWUlGDOnDm49vq78cGOBuzYsUOsoqqpqcG/d7Zg6UtrMGfOnC4Ty6qqKpx62i+ius7xSPu9UOqTDToYTUR0JEnKaahDhw5Ffn5+VKehmm15ePnVzWI4oosvHIuAvxXb//0NJkyeocbXr16EU8YcHVRX8ekXbjz13BoxHJNZt1+Oowqje2D4PzbvxW/v+pMYDqukpAQrX/49Av4WoHNkseLUq7F3714AwOWXXYT5D10qzEXUN8ia01DdbjcOHTqEE06+tM+ehtrgbsbji7Zi/uNPiJO6dO+990KW5ZBts9PpRH5+ftib33Rl8uSJ+NvCa8Vwx2mom56GJLtht9uRnZ2N9PR0mEwm7D/QyNNQqcdiOQ114cKFqK+vx/Dhw1FWVobCwkJYrdaYDmDk5OQYeqTe4/GgtbVVDCcU+6g/9jEx2MfoRHO6/RF1GqpJsmLGjXOiKrNmPwZJ6v4LFImjkPGUWEYuXS4X9u7dG3X5+rs2fFPnxzd1fhz4zthzq4lSxZFwk5udu/+Lih+dLIa7NWfOHEiShPnz56uxeBNFAPjpT89KyDMaiYiIqHcxPFmM5YhfrOx2O2TZJ4ZTnsPhCCoVFRXqtJqaGpRX/BzlYy5E+ZgLMari5+qoIlFfJ57qmMjtRyqora0Le1fTaMyZMwd79+5FdXU1Nm3aBEmS4koU0bkt7eoOqbLm+tG+nsATEREdyQxPFhHjzoXf34JFC/4QsUyedIFa1263Qw54guaPx4Z1S7Drw9djKqNGHCUuJmqrlt+H15beopYZ11woViE6IinbCuXC8L4uLy8LNTU1Yjhqc+bMwb333ot7770Xc+bMESdHzeVyiaEgkiQhEOg47b6vJ/DUe3BdJCLSn+HJovaIdDQCvhZMnXxixFJcPECtq9fI4rFHZ+PoAaaYSnZm9H2Khd1ux+y7qjB71ky18NofOtLEss3ozcpHHofq6moxHDW73Y7Bgwd3eXOcaFRXV6N81BAxHKSn11wQERFR6jP0v30iRgZ27vqv+rp8VHynb6Uyu92O239zAW6deTZunXk2br95MvLy8sRqRH3WkXIKKgAMKh6AL//zbzEcE7vdHtXNQbri8/yAvNwsMQwIo71EqYTrJBGR/gxNFmPd2TNZMmFJ64cWTw6+qfPjsy/d2P7vb7Bx05d4dVU1/vriB0G3jC8eWBQ0f1/gcrmwfOUHeHVVNV5dVY3lKz9AQ0ODWI2oT9Le1OZI2RE8/+wxWLlypRg2zOLFizH2J0PFsCrW7TgRERH1XoYmi8opqNHu9H39bRvy+o9D8XFnonzMhTjNcTkmTJ6B6Zfdhhk3zsEdv70v6NqacWPLg+bXWvbqW/jTgo3404KNeP+jg+LklOVyuXDd9Xepd3y97vq7ur2eiKiviHZb0ZdMv+hn+Pvy55Lyd15TU4PPP3kH06eeKU5SidePHom/IyIioiOFocmikihKkhTV0enBmusRu1NSUoKRwyOPLL7wwnI88OACPPDgAryz9UNxclL95raFqJr1olqWvbJBrEJER9Co1h03TcaVV14mhhPK5XLhpt9ch2m/HCtOCqH9PRwpvxNKXUfSqepEREYzNFmEZmMezdFon8etPkpi8qQJuPyyizD7riosWvAH/P6uW4Lqnn7ajxDw6/NgzbuczwUlb9GUnoxWLnnhpaBnNm7+11Z1mt1uxxtrnsP61YuwfvUivLHmOQwePDhofqIjRXfbjQZ3M15a/k+17NtfFxTbuXsP9tXWYcjIS7Do2dXi7CmjuHgAbrvxbFTdPFOcFMLlcqGmpkZ9ZMbevXuxY8cObNq0CZs2bUJNTU23o5QulwtXXH4x/vj7qSge2PVBOnGHvLvfCVGiHWmnqhMRGcnwZFEh7nCEE/C34PVls/HWuvvx14XXYf5Dl+LWG36Ki385Fnv3fR1U97e3Xx70XvTIw79XE65LLvqZODnI6tXrgpK3aIrYHr3Y7XacevIgnDLmaJwy5micevIgsQpRnxbNtkKRl5sFe14WfnPrnyFJwKCBA5CXm4Xa/XUYXFyE0aOGIC8vC6NHDcGg4shnIqSC8lFD8KvpFTjj9FPUx2m4XC7Mnz8fVVVVmDJlCqqqquB0OrF48WJUV1ejpqYG48ePR319vZpALl68GE6nE5WVlaisrMSUKVOwePFidZnV1dWY9PNzo0oUIeyQx/K7ISIiot7H8GQx1iOAAX9LyOMw5s77O15Yulx9f8/v78TR/c1BdUSjjh+oJlxHD+i6bqJN+9/T4a7bGlX5+P0XEfC3iIsgOmJEu61Q5Ap38Vz07GqMHnUcTuu8prnB3YwnHrtZfb9vfx327a9Tp23ZtlN9r1DiSpk0dXZInUQoLh6AvzxyDe668yo4HA48/vjjqKioUJO+kpKOO0DX1NRg06ZN2Lx5s1pWrlypJpB2ux0VFRWYMmUKnE4nSkpK4HQ6MWXKFDy1YA6WPF0VVaKIMDcdYsJIqYLrIhGR/gxPFnvq76t24MG5T6nvS0pK8OvLfhxUJ1Zjf3JcSJIWa7n4wlPFxUbk97rh9RyMWHy+BsiyFzBZsG//d7Ck9YMlrR8kkxWy7MXTC/+IDeuWYMO6Jbjrt9eJiyfqU7TXI8WaOO7cvQdudzMmnHuKGqutrcOPTr0G6ze8BwDYtXsPfnTqNZjtfA5PPbsGb2x4H5OmzkaDuxkAsH7DdkyaOhv23Gzs2r0Hk6f+HjOungR7hEdL6K24eACeeOxmHDr0Daqrq7Fy5Ups2rRJfUSGkgBWVlbiyiuvVEtVVRUqKyvVpFB5nMbKlSuxePFiSJKEg3Vf4X7nVSEJdldkxHbAj8goXCeJiPRneLIY75E/kyUTjy3chOtuvEeN2e12rF+9CDnZtqC6sQr4W0MStlhLT6+XlExWbP/wGzgfWocfjb0eg4dPQW7hKSgfcyHy+o9DXv9xOHPCXbj5t4vhcrnwk5OOxskn5mFAfpO4KKI+RxbuwBmNfbV1mDR1NvYKI4DKiKKifGTHw+eLB/bHnbdOw523TkNtbR2WLf8n0DkymZebhfJRQzC98xT2BndTTAmWHkpKSnDllVeipKQEO3bswOLFi/H444+ryV9NTU3YsnjxYixevBj33nsvNm3ahOrqalRUVODKK6+E3W4XP6ZbEuJP3okSKd79CyIiisyQZFGWZbS3t8Pj8ag/vV4vPB5PVDsb3x40YcpFTtz3wGNqzG63Y/2qRSgqaA+q2xt9e9CEX0y7HxMmzcBfnngae/fuDXtDiurqarzwwnJcfOlN+NGp1+C7Q2liFaI+Seq8g3IsO4O1++sw4+qf4+Xlb6mjhF3Jy+tI/pSH0SvzFA8cAHfn632133XWyVbnM0r1R9XYsWMHHA4H/va3v2HlypX429/+hvnz5wddkygWp9OJ+fPn4/XXX8f8+fOxcuVKVFRUYPHijgNPsdKeehrL74Mo0aLZnyAiotgYkiz6A360tbWhtbVV/dnS0oLW1lYE/H6xuqqp1Yx5C/6B0xyXB90htKSkBOtXLcLwoRlB9Xuj/d804oIpvwnp35VXXILfzLwWs2fNxMwbf4XJkyagoqJCrVNTU4P/OWMaDnwf+fsj6guUUcVYdwRPG1uOGVdPQl5uVo/ufDrr1ulwNTTjLuezWPTsGjzgvDrotFajXDrtXOTl5cU1GigqKSlBSUkJxo0dLU7qljZBjPV3QpRIPHhBRKQ/SY7jv73T6RRDAICzxw/G8WX9xDBqauvx8ordKCoqQmlpKYYNG4b8/HxYrVaYPLsA2S3OAnSOuJ3muDzo6Pf48adh4eOzcFRhIKiuaPu/v8GEyTPU9+tXL8IpY44OqvPa2v+gZm/HHQH1MqRkCC68oFQMR/Ta2v/g2hl3qO9fXjoP5/5sdNib2pjMGXjjHx/ihpseUr+T2b+biVtvPFusStQnyLIMn8+HlpYWNDU14YcffsDoky5BZroXrY2fi9UBAFu27cTkqb/HE4/dhOlTf4a7nM/i5eVv4aP3nlFHDfsNnKxO31dbhx+NvUZ9r0y/89Zp+O2t07Fz93/xxobtuPPW6cInGW/rtl1Yv+E91H5dD7M1D/n5hSgpKYHdbleTSLvdHrTNdLlc6uM1Dv1wADlZJhQfW4DTxpaHnJLbnYJjJ2HbpqeBQAPy8/ORnZ2N9PR0mEwm7D/QiBXrvhBnAQBUVVXpkuRS3+dwOOB0OtVrbLuycOFC1NfXY/jw4SgrK0P//v1hsVhiShpzcnJgMhly3BwA4PF40Nras8tWYsU+6o99TAz2MTpWq1UMhaisrITD4UBlZaU4KWY9a22MYs1LjyoMYPbvOp4zZrfb8cjDv8fKl+d0myhG68Vla/HAgwt0LS8uWyt+TJc+3vmJ+rqioiJioojOayvPPfN4nHjiiWpsX23i78hIlEzaU1BNJhM6L5mLSDlltKGh4+f1V01Cg7sZD897GQ3uZuzc/V9A87ezb3/HqaVKfe2dURvczajd/z0envcyKk69BhWnXoPx51bh4XnLkAynjS3H/c6rseSZO/C3hddi3v0X4hfnD8TQgS3ol30A/bIP4Os9b6O5/iP1/ZiREn5x/kDMu/9CLF40E3/50w2489ZpMSeKCmU7rj0dlYiIiPomQ5PFeHYsrr7iDDz95IPY8cFS/PrSH/f4RjKpRnu7+urqanz6xQ8wWTKD6igkkxXvVx/E5s2b1VheXvi6RH2J2WyGyWTqdtSgwd2MvNxsrH71fowedRzc7mYUFw/A6lfvxwXnngJ3QzPc7hasfvV+jBs7GrW1dZAgBdWvra3rrH8q3A0dd1J94bm7MP2iMzH9ojNx2thyPPXsmqiugzRC8cAB6ijhaWPLMf2in2H6RT9T35ePGhL1YzGioU3eYz0ASERERL1LSp+G2hPRnIb6+VetcDXEfoOHrtjtdgw/LvprKZtazRh/9kz1AdkAMH78eIwuPw65uYcTwcZGLz7e+XlQomi327Hl7b92+4xJot5KlmUEAgG0t7ejpaUFLpcLZeW/RGamDU2HPhCrJ8Rs53Mdd0KdeqYamzR1Nl547i71tNYjhXIaqiS7YbfbkZ2djbS0NJjNZp6GSrroyWmohYWFsFqtXR5QEulxSlgseutpb7FgHxODfdRfb+1jnz4NNdUMH5qBU8YcrWuJJVEEgOwMP9avWqQ+XBsANm/ejCcW/C3o9Na/PPF0UKKo3OSHiSL1ZdrTT81mM9LS0vDfz/8fTJZ8ZOUfvuFTIp02thzLlv8Ty159C+s2vIeH5y3DBeeeesQliqI4jjMSJVQsSSIREUUnackiN+qHFfVrx0fbnsZTC/6AyZMmRDwCb7fbMXnSBDx8/63Y/I8n+sTdYIm6I0kSzGYzbDYb0tLS4PM24P/e/RvM1gGGJIwTzj2l87TVcpww6jhcf/UkXHf1z8VqR47OTbdyZJTbckoVPIBBRKS/pCWLid6o/8+pw7Hrw9fVMmrEUWKVlBLwt+J/J5+Ivy68DjWfr8S+L9YFtb/2qw2o+Xwl/rrwOlx95XhkZ/CRGXTkUK5XTEtLQ1ZWFgK+Rnyw5a8wWfsbkjCi89rA4oEDkHuEjyhK6LzREBNFIiKiPi9pyWKidzL8XjeOHmBSS3ZmYj9PT35vA7IyfEHtz0xrg9/bIFYl6vO0p6HabDakp6cjOzsbAb/xCSMdvtmQUoiIiKjvStp/+kSPLBJR36Gcimq1WtVkMTc3Fwg04/+2GHdKKnVcWG+xWDi6SEREdATos3dDJaK+R5Zl+P1+eL1etLW1obW1FU1NTTBZcjDm1CthsaaLs5DOPql+BfA3ICsrC2lpaWriyLuhkh5iuRvq008/jYaGhh7dDdVsNvYmcYFAwPCD5eyj/tjHxGAfo5OV1f3lMHreDdXwZLGsrAxDhw5lskhEcdEmjMptr1taWgApDWZLFgKBAHx+3+F/ANotnBThvRgHIEOGpNzNRYxLUkh94PDNX0KmaZavzt/xJpTYls73Ie2JUE9L7gxIkA63rWPCYWG+g3aPH2s3foX8/HwMGjQIQ4YMQb9+/ZCRkYFW1/uwmluQlpYGm80Gs9kMSZKYLJIuYkkWn3/+eTQ2NvYoWXS73YbuLNpsNmRkGHtzOvZRf+xjYrCP0SksLBRDIfRMFg0/DbWnXxARkXJKqs1mQ2ZmJnJzc5GeJgGBBgR89ZACbkgBN+BvAAINkP0uSHLoe9nnAgINalyZhkADpIAbst+lvleKdrnaeSQ5+DO1ywr63M46UsAd3LbO10qblJgyr7a+7HeFfo7QJmUeZT74GzqWLdZT3mvi7a0/4MCBA/juu+/Q3NwMv98Pk8kESZLUJNFisehyhJRIL7EkiUREFB3Dk0VuzImoJ6TOZy9qH6eRmZmJnJwc5OXlwW63w263q6/z8/ORn5+vxpWY3W5HQUFBUJ38/Hw1psS178WiLCc/Pz/os8Xp4d7n5eWFtE37edrliXXE5YptFKdr2ynGwr/u6E+/fv3UadnZ2cjKykJGRoY6oqj8PoiSQTz4LL4nIqKeMzxZ5MaciPSg3CVVGWFMT09HRkYGsrKykJWVhZycHDXByc7OVos2rq2njYn1tHVycnKC3mtLuM9SSm5ubsh8yrK182k/P9xnRWqL9qfYB3Fe8TO1y9LOm5mZqSaImZmZSE9Ph9VmVe+IykSRkonrHxFR4hmeLIIJIxHpREkYLRYLLBYLbDabOtqYlpaG9PR0NYlUXivxjIwMZGRkqO/F+tr3Xb1WltPVZymnbmrnFeuIRfycrl6nCf1ND9MOsU/aoswfbrp2mtVqhcXccUMb7qgTERH1fYYni9zBIKJEUE5P1T4DUCnhpmlj4aaJy4g0XVy2OK/4PpYiLjtcEadr+xSpXeI8oSX0c5XlEaUqrp9ERPoz/G6o4qMzJN8e+L0NaG1rQ0tzC9rb2xEIBADxTn7KXQQhQTJJMEuaGyuEu8uf1DGCGfLPQ7nrXxRkufPug5q7BGrvTOj3+9U2iW2Fpv0KpV409SPVgVDParEqwdDvoav34WLa9+JrhfJdaObz+/2QZTn0bo2CSH3XxruaH13UlUwSzCbhZhuR2q3Eta+V91ridyB+H8I0f8APOdAxUWyf9r04TYmh8zuJ9FokfhcyZJikwzv24u9JM2OHcH3rfC933rEz7N+QljhvZ8zn96lt1wr3nUTqoxgX6yvEZSoxJckJEq69EXT19x/y3Ynfaec0v+xXt2fi70qJHa5+uF+R6iBMPSUmLkt5L0mdfxtiv8XvQvO+wd2Of76zD/3798eIESMwYsQI9OvXD2azGS312+H3HtLM2IF3QyU9xHM31BEjRqC0tJR3Q42AfdQf+5gY7GN0jL4batKTRVmW0dDQgD179uDzzz/Ht99+i9bW1qCNvbLTis4duKysLFitHUmSEtfW73YHN8J8kiQhEAgE7SRrl6WdR7llvxLX1tW2V6RMk2UZJpMpqJ52WjTtN5vNyMnJCYqH+2yxfdq6Sn/DEecLN78sy2hsbITf7weAkD6JtMsQ+ysuP1I8nMzMTHWdCEf8XpS+i0wmU9B3In62soxw09va2tDe3h51u8U2aetHeq2tK7YVACwWC7KyskLmCddu7XvltRxm/dPW7apd2vcNDQ0R59MSvwOEWa62jjgtXD+UOllZWbBYLGpcK9x8Ugx//1piXW17lXVCoUyTdfj7R5i2aD9bYbVakZmZGbJcbX/DsVgs6N+/v7rNZrJIRognWeSjM7rGPuqPfUwM9jE6fTpZHDBgAMrKykKSxaamJhw4cAB79+7FwYMH4fP5AM0OEYQdzoyMDPUfQqTmR5omxrXvu3utjXm9XrS2toZ8hvJPSltf/EwtZYcfwo6fMp/yOhyTyYTc3NyI08U+KO+1MURYfrh+hCNJEhobG4MSL3H54YjfjxgX6yrE71Spm9F5h0btPGL/5TAJljhdEW5esY4yDZ3LaW9vR1tbW9C0cG0V+xhpmeGmadcXhba+2WxGlvCw1nCfK7ZBiSn1xc8NN5/YN+00l8ulzqdM0y5fnF8kxsXldzUvOutnZWWFPNpBnEf7vrvXYgxhfj9i+7QHEMLpyd8/wvRHS5lm63y8iPK+uz4o08xmM+x2OwYNGoSBAwciLy8PJpOJySIlFJNF/bGP+mMfE4N9jE6fThYjjSx6vV64XC64XC40NzcjEAggEAioR97FJmZmZgYlBtDsXIXbeRJ3jsRp4eIKcbnKspRkEZ3LjXSEvqvla9ul1ItUXxvXtik3Nzdk/nB1lddaYlz8/O7apFBWfHE5Cu284rLCtVlLG5eEkR8lBk2yKLZBbL/cmTAqr8XPCEecP1x/5M5kUTuyiDDrhtjucJR5lNeRKJ+rXabZbEZ2dnZQvUhtDifcdxaJ9vO1dSVJUpNFdLN+IcxotNL/SH//Sh0tZbnKZwBQRxa1ny8S2y4SlxtuWUp7wy1HHFnUCve9RGqP+L1p64rzi3WVm9son6fQ1lHea+eVJAmZmZnqIz7S09MhSRKTRUqoniSL/fv3h8ViCfs3FIkeO26x6K07p7FgHxODfdRfb+3jEZcsAkAgEIDX64XH41Gvf0MXO0jKaajapivTtK8j7QyJrxWRYhA+H8LIovYfk9gm7bza12I9sV1iLByTyaQmBmKdcO0S3yNCG7Xvxe9DoW2nMrLY3TK1sUjLRRffgbg8bR3xAII4P8K0S7u87uqLxLYBQGtrK9rb27tcpnZebV8UXcUh/J7FfsiyDKvVGjKyqNXdcpRpkdqsfR+OsiyXy9XlPJE+M1wdsb42pgi3rJycHJjN5pC4+DrcMrQxhGmvMi1cm7XT29ra0NbWFtVytK/FWCSR6mjbZet8rEi4dort0k43dV7zqTyaxNR5LSyTRUqkniSLHFkMj33UH/uYGOxjdPp8slhWVoahQ4cGJYsKOcLolPg6o/M0VOW9Mm93xLrizpGWWFeJKe+7Sxa1dZX32undUeYPN58yzWQyhVyzqNDOH+6nWBdh2ibGw72XO69Z1I74iZ8R6fvRvtcSlyMuT0tZjrJOiHXDvVeI/dDWjTRfuHYodcXTUMXp2veKrpan/Uxxnkh1LBYLMjMzg5YTSaTp4ZYdKR5pGdqNodh2MSZOg9C2SK+V94jwPWZnZwedhirWDdcuhVhXiYnzar8PbX2lrrJOhFteV5T5w80nfgfhaOcXr1kU5w33Gdq4tn8AmCxSQvUkWeTIYnjso/7Yx8RgH6NjdLJo+KMztDtTIinCrd3F112976qIdZX34eYPFw83b6TlhJtXjHVVxGWHm9ZV0c4f7qdYN5p4uPdd/RTnE+cV63W33HBFXLZYN9x78bPDzRtpPm1MrNvddHFZYlysr60jziPGxdfhPlcskaZ3tzzxM8X5xbhSP1JMnBZu/nCvtcvRxqKtG+mzw9UVl6edHm452mli/WhKV/OJ78OVcJ8fad5wn6GNE6Uqrp9ERIlneLKobNx7mlUTERERKbhfQUSkP8OTRW7MiYiIiIiIUp+hyWKka2aIiIiI4sVTUomIEsPQZJGJIhEREelNORhNRET6MjRZVDbm3KATERGRnngwmohIf4Ymi0wSiYiIKBG4j0FEpD9Dk0XwyB8RERElAPcviIj0Z2iyyGsKiIiIiIiIegdDkkWT1PGQZ7PZHPbhz7EWAAgEAkktAELalYwitisZxWw2h7TL6MJ1oqOkwvcQCARC2pWMIrYpGaUvrhNEqYoHo4mI9CfJcZy34XQ6xRAA4Ozxg3F8WT8xjP0HGrFmYw2KiopQWlqKYcOGIT8/H1arVawalZaWFni9XjFsKJvNhoyMDDFsqEAggMbGRjFsuJycHHWnNFlSYZ1IS0tDenq6GDaUz+dDc3OzGDZcXl6eGDJcU1MT/H6/GDZUKqwTHo8Hra2tYjhuJs8uQHaLYew/0IgV674QwwCAqqoq2O12MUwUwuFwwOl0wuFwiJNCLFmyBG63G8OHD0dZWRn69+8Pi8USU9LodrsNPX01GfsO7KP+2MfEYB+jU1hYKIZCVFZWwuFwoLKyUpwUs+Tu4RMRERH1gJIc9nQHjIiIQjFZJCIiol6LSSIRUeIwWSQiIiIiIqIQTBaJiIiIiIgohKHJIk8VISIiokSI5cY2REQUnaTdDbWgoAAWi0WsGpVUuPNlMu6gJOLdUA9LhXUiFe58ybuhHsa7oXbg3VCpN4nlbqhPPvkkXC6XejfUwsLCmO+ynpmZaej/L5/Ph7a2NjGcUOyj/tjHxGAfo5OWliaGQvSJu6HGkaMSERERAZ37EdpngCrvZVmOuojPJU10UdptZBHbkOjCPiamiG1IdGEfE1PENsRTjGboJ8qyzNNEiIiISHcyD0ITEenO0GRRmygyaSQiIiIiIkpdhiaL0Bz54xFAIiIiIiKi1GV4skhERERERESpLynJIkcViYiISE+8vIWISH+GJ4vcmBMREZHeeCCaiEh/hieLvCMqERERERFR6jM8WSQiIiIiIqLUx2SRiIiIiIiIQhieLPIUVCIiItIb9y+IiPRnaLIoy7JaiIiIiHpKSRK5b0FEpD9Dk0VJktRCRERE1FNMEomIEsfQZBHcqBMREREREfUKhieL4OMziIiIiIiIUl5SkkVJkjjCSERERERElMIMTxY5okhERERERJT6DE0WldFEjioSERERERGlNkOTReX0U44uEhERERERpTZDk0VoTkNlwkhERERERJS6DE8WFTwVlYiIiIiIKHUZniwySSQiIiK98YwlIiL9GZosMlEkIiKiROA+BhGR/gxNFiVJ4pE/IiIiIiKiXsDQZBGdR/549I+IiIj0xIPRRET6MzxZ5N1QiYiISC/K/gQPRBMR6U+S49i6Op1OMQQAOHv8YBxf1k8Mo6a2Hq+8/gmKiopQVlaGYcOGIT8/HxaLRawalfT09Ljn1YvP50NbW5sYNpTJZEJmZqYYNlxLSwsCgYAYNlQqrBMejwcej0cMG8pqtSItLU0MG66pqUkMGS4zMxMmk+HHw4L0xXWi1fU+Ar56MYz9BxqxYt0XYhgAUFVVBbvdLoaJQjgcDjidTjgcDnFSiIULF6K+vh7Dhw9HWVkZ+vfvD4vFEtPB6JycHEO3Ex6PB62trWI4odhH/bGPicE+RsdqtYqhEJWVlXA4HKisrBQnxcywZPHlFbtRVFSE0tJSDBs2DAUFBXHv3GdkZMBms4lhQyVjBROZTCbk5OSIYcO53e6kH9FNhXWira0N7e3tYthQFosFWVlZYthwDQ0NYshwWVlZcW9j9JIK64TNZkNGRoYYjltL/Xb4vYfEMJNF0kUsyeJTTz2F+vp6jBgxAmVlZSgsLITVao0pWdTzQEo0fD4f/H6/GE4o9lF/7GNisI/RieZ/ep9IFvPz86PKjMNJhcSAyeJhTBY7pEJiwGTxMCaLHZgsUm8SS7K4ZMkSuN3uHo0sGv3/S++/x2iwj/pjHxODfYxOYWGhGAqhZ7LYs3HQGPDGNkRERJQo3McgItKfYcmi8tiMWI74ERERERERUXIYliwqeOSPiIiIekrZn+Bd1omIEsfwZJEbcyIiIuop8ZEZPBhNRKQ/w5NFIiIiIiIiSn2GJou8yQ0RERHpiWcsEREljqHJooIJIxEREfUETz8lIkq8pCSLvCsqERER9YR4YxvuVxAR6c+YZLHzoJ92Q84jgURERERERKnLmGRRg0f+iIiISC88+ExElDjGJIvMD4mIiCgBxEdoEBGRfoxJFjW4MSciIiK9KPsVPHOJiEh/hiWLTBKJiIhIb0wSiYgSx7BkUXu3MiaOREREpAc+QoOIKHEMSxaJiIiI9MaRRSKixGGySERERL0Wr1kkIkocw5NFWZYhSRI36kRERKQbnoZKRKQ/Q5NF7XUF3KgTERERERGlLkOTRe1NbjiySERERHrhfgURkf4MTRYVHFkkIiIiPXG/gohIf0lJFnn0j4iIiPTEfQsiIv0lJVnk0T8iIiIiIqLUZmiyyNtbExERkZ6UfQoeiCYi0p+hySI36ERERKQnHogmIkocQ5NF8E6oRERElAA8EE1EpD/Dk0VuzImIiEhvPBBNRKQ/w5NFSZKYMBIREZGuuG9BRKQ/SY5j6+p0OsUQAODs8YNxfFk/MYya2nq8vGI3ioqKUFpaiqFDh6KgoABWq1WsGpWMjAzYbDYxbCiPx4PW1lYxbCiTyYScnBwxbDi32530f9KpsE60tbWhvb1dDBvKYrEgKytLDBuuoaFBDBkuKysLFotFDBsqFdYJm82GjIwMMRy3lvrt8HsPiWHsP9CIFeu+EMMAgKqqKtjtdjFMFMLhcMDpdMLhcIiTQjz11FNwuVwoKyvD8OHDUVhYGPN+hc1mg8lk3HHzQCAAj8cjhhOKfdQf+5gY7GN0ovmfXllZCYfDgcrKSnFSzHrW2jjwmkUiIiLqKb/fD5/Pp/5Uit/vj7pYLBZDi9JuI4vYhkQX9jExRWxDogv7mJgitiGeYjRDk0VZlpM+AkVERER9Dw9EExHpz5DTUGu/dmPFui/U01CHDRuGgoKCuLPjQCCAQCAghg1lMpl6PIysB5/PJ4YMF+/vUU9cJzqkwveAFFknUuFvoy+uE4HWHZD9LjHM01BJF7Gchrpw4ULU19dj+PDhKCsrU09DjSVpzMnJMfRvNBmXsLCP+mMfE4N9jE40p9vreRqqIcni/gONWLOxBkVFRSgrK8PQoUORn58fVWfDaWlpgdfrFcOG0vs6oHgEAgE0NjaKYcPpseL3VCqsE2lpaUhPTxfDhvL5fGhubhbDhsvLyxNDhmtqaoLf7xfDhkqFdULvf4Ymzy5AdothJoukCyaL+mMf9cc+Jgb7GJ1o8ic9k8WetTZGPA2ViIiIiIiodzA0WYzlaB8RERFRd7hvQUSUOIYmi+BGnYiIiHTEM5aIiBLH8GSRp6ISERGR3ngwmohIf4Yni+AGnYiIiIiIKOUZniwyUSQiIiK9KPsVPGuJiEh/hieL3JgTERGRXmRZ5oFoIqIEMTRZZKJIREREeuP+BRFRYhiaLEqSpB7941FAIiIiIiKi1GVYsqgc9RN/EhEREfUUD0ITEenPsGSRI4pERESUKDwITUSkP8OSRY4oEhERERER9R6GJYscUSQiIiIiIuo9DEsWtTi6SERERERElNqSkixylJGIiIj0xH0LIiL9GZ4sSpLEkUUiIiLSFfctiIj0Z3iyCB79IyIiIiIiSnlJSRZ59I+IiIj0xAPRRET6MzxZlGWZG3QiIiIiIqIUZ3iyCI4sEhERkc64b0FEpL+kJIscWSQiIiIiIkptSUkWiYiIiIiIKLUxWSQiIqJejWcsERElhqHJIq8nICIiIj2YzWaYzWZYLBb1Z6wlEAjA5/MZVgKBQEgbEl3YR/0L+5iYwj5GV4wmyXFkcE6nUwwBAM4ePxjHl/UTw9h/oBFrNtZgwIABKCsrw7Bhw5Cfnw+r1SpWjUpLSwu8Xq8YNpTNZkNGRoYYNlQgEEBjY6MYNlxOTg5MJkOPO4RIhXUiLS0N6enpYthQPp8Pzc3NYthweXl5YshwTU1N8Pv9YthQqbBOeDwetLa2iuG4mTy7ANkthrH/QCNWrPtCDAMAqqqqYLfbxTBRCIfDAafTCYfDIU4KsWTJErjdbgwfPhxlZWUoLCyE1WqNaZTR7XYbeiA7GfsO7KP+2MfEYB+jU1hYKIZCVFZWwuFwoLKyUpwUM0P38GPZgBMREREREVHyGJosEhERESUCD0gTEenP8GSRG3MiIiLSW09P7SIiolCGJ4vKxpxJIxERERERUeoyPFlU8AggERER9ZRy8JkHoYmI9Je0ZJGIiIiop5SDzzwITUSkP0MenVH7tRsr1n2BoqIilJaWYtiwYSgoKIDFYhGrRiUQCCT9n4IkSUl/XASApD8aAJ3Puko2rhOHcZ3owHWig97fg7/5I8iBBjHMR2eQLvjoDP2xj/pjHxODfYyO0Y/OMCRZrKmtx8srdgcliz15zmJGRgZsNpsYNpTezy6Lh8lkQk5Ojhg2nB4rfk+lwjrR1taG9vZ2MWwoi8WCrKwsMWy4hobQZMJoWVlZcR+Q0ksqrBN6/zNsqd8Ov/eQGGaySLqIN1kcPnw4+vXrx2QxDPZRf+xjYrCP0TE6WTT0kLfy5ciyHNPGnIiIiCiSnu58ERFReIYmi5IkqYWIiIhIL9y3ICLSn6HJokKWZR4FJCIiIt1wv4KISH+GJ4vcmBMREREREaU+w5NFBU8XISIiIiIiSl1JSRYlSeIIIxERERERUQpLSrLIRJGIiIj0xDOWiIj0l5RkkRt0IiIi0gP3KYiIEsfwZJGnoBIREZFetM9wJiIifRmeLMqyzKOAREREpCvuWxAR6c/wZJGIiIhIL0qSyJFFIiL9GZ4s8sgfERER6YVJIhFR4hieLBIREREREVHqS0qyyKOAREREREREqS0pyaIkSTwdlYiIiIiIKIUlJVkkIiIiIiKi1GZ4ssjnIREREREREaU+w5NFIiIiIr3x8hYiIv0lLVnkRp2IiIh6is9ZJCJKHEmOY+vqdDrFEADg7PGDcXxZPzGMmtp6vLxiN4qKilBaWophw4YhPz8fVqtVrBqVjIwM2Gw2MWwoj8eD1tZWMWwok8mEnJwcMWw4t9ud9H/SqbBOtLW1ob29XQwbymKxICsrSwwbrqGhQQwZLisrCxaLRQwbKhXWCZvNhoyMDDEct5b67fB7D4lh7D/QiBXrvhDDAICqqirY7XYxTBTC4XDA6XTC4XCIk0I89dRTcLlcKCsrw4gRI9CvX7+Y9ytsNhtMJuOOmwcCAXg8HjGcUOyj/tjHxGAfoxPN//TKyko4HA5UVlaKk2LWs9YSERERJYHf74fP54Pf74fX6w16H22xWCyGFqXdRhaxDYku7GNiitiGRBf2MTFFbEM8xWiGJ4s8/ZSIiIiIiCj1GZ4sJvt0RSIiIuo7eM0iEVHiGJ4sSpLEDToRERHpgvsURESJY3iyCJ6KSkRERERElPIMTxZ5BJCIiIiIiCj1GZ4sEhEREemNZy0REenPmGSRg4lERESUQDxziYhIf8Yki5qNOI/8ERERERERpT7DkkUmiURERERERL2HYcmigqeJEBERkV54MJqIKHEMSRYlSYLZbIbZbIbFYulxAQCfz5fUEggEQtqVjCK2KxlFr99rT0oqrBMAQtpldDGZTCHtSkYR25WMEggEQtpldEmFdUKSpJB29aTwgB+lGq6TRESJI8lxbGWdTqcYAgCcPX4wji/rJ4ax/0Aj1mysQVFREUpLSzFs2DDk5+fDarWKVaPS0tICr9crhg1ls9mQkZEhhg0VCATQ2Ngohg2Xk5MDk8mQ4w4RpcI6kZaWhvT0dDFsKJ/Ph+bmZjFsuLy8PDFkuKamJvj9fjFsqFRYJzweD1pbW8Vw3EyeXYDsFsPYf6ARK9Z9IYYBAFVVVbDb7WKYKITD4YDT6YTD4RAnhVi4cCHq6+sxYsQIlJaWorCwEFarNaaRRqP/f+n99xgN9lF/7GNisI/RiSZ/qqyshMPhQGVlpTgpZj1rLREREVEKiCVJJCKi6BiaLMYxiElEREQUEfctiIgSx9BkUZIkHvkjIiIi3TFpJCLSn6HJIhEREVEi8GA0EZH+DE8WeeSPiIiI9Mb9CyIi/RmeLCp4BJCIiIh6ggkiEVFiGZosajfq3MATERFRT/DAMxFRYhmaLHKjTkRERHrj/gURUWIYmixqccNOREREepBlmfsVREQJYHiyyI05ERERERFR6jM8WVSuVeQ1i0RERERERKnL0GSRCSIREREREVHvYGiyKEkST0MlIiIi3fGANBGR/gxLFnn6KRERESUKD0YTEenPsGRR2YhLksSEkYiIiHrEbDbDbDbDYrHAYrEEvY62BAIB+Hw+w0ogEAhpQ6IL+6h/YR8TU9jH6IrRJDmOzM3pdIohAMDZ4wfj+LJ+Yhj7DzRizcYaFBUVoaysDEOHDkVBQQEsFotYNSotLS3wer1i2FA2mw0ZGRli2FCBQACNjY1i2HA5OTkwmQw77hBWKqwTaWlpSE9PF8OG8vl8aG5uFsOGy8vLE0OGa2pqgt/vF8OGSoV1wuPxoLW1VQzHzeTZBchuMYz9BxqxYt0XYhgAUFVVBbvdLoaJQjgcDjidTjgcDnFSiCVLlsDtdmP48OEoKytDYWEhrFZrTCOMbrfb0APYydh3YB/1xz4mBvsYncLCQjEUorKyEg6HA5WVleKkmBm+h8/TUYmIiEhvsSSJREQUHUOTRSaIRERElAjcxyAi0p+hySKP+hEREREREfUOhiaLRERERERE1DswWSQiIiIiIqIQTBaJiIio1+OlLkRE+jM8WdQ+b5GIiIioJ5T9Cd7ghohIf4Yni3x0BhEREemF+xNERIljeLJIREREREREqc/QZFGWZZ5+SkRERERE1AsYmixKksTTRYiIiEh3PBhNRKQ/Q5NFcGNOREREOpBlmQegiYgSzPBkUdmwM2kkIiKieEmSFLQvwcSRiEh/hieL4AadiIiIeoj7EkREiWdosqjdsHMjT0RERPHiGUpERIlnaLKobNi5gSciIiIiIkptkhzHEJ/T6RRDAICzxw/G8WX9xDBqauvx8ordKCoqQllZGY477jgUFBTAarWKVaOSkZEBm80mhg3l8XjQ2toqhg1lMpmQk5Mjhg3ndruTPlKcCutEW1sb2tvbxbChLBYLsrKyxLDhGhoaxJDhsrKyYLFYxLChUmGdsNlsyMjIEMNxa6nfDr/3kBjG/gONWLHuCzEMAKiqqoLdbhfDRCEcDgecTiccDoc4KcTzzz+PxsZGDB8+HGVlZSgsLITVao3pgLTR/7/0/nuMBvuoP/YxMdjH6BQWFoqhEJWVlXA4HKisrBQnxczQkUXwBjdERESkAz6Oi4go8QxPFpW7l3EDT0RERD0h3hGViIj0ZXiyyCSRiIiI9ML9CiKixDE8WQQ37ERERKQjji4SESWG4ckiN+hERESkF17aQkSUOIYni2DCSERERDrhjfOIiBInKckiERERERERpTbDk0WeKkJEREQ9Je5PiO+JiKjnjEkWuf0mIiIiHfG0UyKixDMmWSQiIiIiIqJeRZLjOG/D6XSKIQDA2eMH4/iyfmIYNbX1eHnFbhQVFaGsrAzHHXccCgoKYLVaxapRycjIgM1mE8OG8ng8aG1tFcOGMplMyMnJEcOGc7vdST/9JxXWiba2NrS3t4thQ1ksFmRlZYlhwzU0NIghw2VlZcFisYhhQ6XCOmGz2ZCRkSGG49ZSvx1+7yExjP0HGrFi3RdiGABQVVUFu90uholCOBwOOJ1OOBwOcVKIp556Ci6XC8OHD0dZWRkKCwtj3q+w2WwwmYw7bh4IBODxeMRwQrGP+mMfE4N9jE40/9MrKyvhcDhQWVkpTopZz1obI96xjIiIiPTg9/vh8/lCit/vj7pYLBZDi9JuI4vYhkQX9jExRWxDogv7mJgitiGeYjRDk0UmiURERERERL2DockieLcyIiIiIiKiXsHQZJGJIhERESUCz14iItKfocmiJEncmBMREZHueECaiEh/hiaL4MaciIiIiIioVzA8WQQTRiIiItIZz1wiItJfUpJFbtCJiIiIiIhSm6HJIkcUiYiIKBG4j0FEpD9Dk0Xe4IaIiIiIiKh3MDRZBI/8ERERkY54EJqIKHEMTxaJiIiI9MKD0EREiWN4ssgjgERERKQnXuZCRJQYhiWL2o04jwISERGRXrhfQUSUGIYli+jcmMuyzKN/REREpCsmjERE+jMsWWSSSERERInCfQwiIv0Zlixq8egfERERERFRaktKskhERESkJx6IJiLSX1KSRZ4qQkRERERElNqSkiwSERERERFRajM8WeSoIhEREemN+xdERPqT5DhO8nc6nWIIAHD2+ME4vqyfGMb+rxvx+htfYsCAARg+fDiGDh2K/Px8WK1WsWpUfD4ffD6fGDaU2WyOu/16amtrE0OGs9lsMJkMP+4QJBXWCYvFAovFIoYNFQgE4PF4xLDh0tPTxZDhPB4PAoGAGDZUX1wn5LaPgUCDGMb+A41Yse4LMQwAqKqqgt1uF8NEIRwOB5xOJxwOhzgpxMKFC1FfX48RI0agtLQUhYWFsFqtMSWNOTk5hv7/8ng8aG1tFcMJxT7qj31MDPYxOtHkH5WVlXA4HKisrBQnxaxnrY2W1LHTZLVaYTab1dfKjlSsJRAIwO/3J7VAsyOYrGIymULalYwitisZhetER+E6cbhwnegoAELa1ZOC2I8vEiVUHMe8iYgoSsYki2E25uJ7IiIiIiIiSh2GJYvKaSGSJDFRJCIiIiIiSnGGJYsKWZZjup6AiIiIiIiIjGdosqiMKHJkkYiIiIiIKLUZmixKksRRRSIiIuoxs9ms3jQv3hIIBNS7aRtRAoFASBsSXdhH/Qv7mJjCPkZXjGbMozMONGLNxhoUFRWhtLQUQ4cORUFBQVS3fg2npaUFXq9XDBvKZrMhIyNDDBsqEAigsbFRDBtOj9sA91QqrBNpaWlJf2SEz+dDc3OzGDZcXl6eGDJcU1NTx907kygV1gm9bw1u8uwCZLcY5qMzSBexPDpjyZIlcLvdGD58OMrKytC/f39YLJaYDkq73W5Dz3ZKxr4D+6g/9jEx2MfoFBYWiqEQve/RGRrK6GIsG3MiIiKirvR0B4yIiEIZniwquFEnIiIiIiJKXYYni0wSiYiIiIiIUp/hySJPPyUiIqKe4sFnIqLEMzxZBDfwREREpDMejCYi0p/hyaIsy9ygExERUY9wX4KIKPEMTRY5okhERESJwH0MIiL9GZos8iggERERERFR72Bosqicgsqjf0RERERERKnN0GRRSRQlSeIoIxEREfWYsj/B/QoiIv0ZmixCszHn6CIRERHFS9mPEH8SEZF+DE8WFTwCSERERPHifgQRUeIZnizyCCARERH1lLgfweSRiEh/hieLRERERD0lJodi8khERD1neLIobtyJiIiIeor7F0RE+jM8WeSRPyIiItIb9y+IiPRneLLII39ERESkN+5fEBHpz/BkkUf+iIiIiIiIUp+hySITRSIiIiIiot7B0GSRp4gQERERERH1DoYmi0RERESJwLOXiIj0x2SRiIiIeh0xOeTZS0RE+ktassiNOhEREcVL3I8Qk0ciIuq5pCWL3KgTERERERGlrqQli+IRQSIiIqJo8aAzEVHiSXIcW1un0ymGAABnjx+M48v6iWHUfu3G39d8jqOOOgqlpaUYOnQoCgoKYLFYxKpERJTCfM0fQfa7xDD2H2jEinVfiGEAQFVVFex2uxgmCuFwOOB0OuFwOMRJIZYsWQK3243hw4ejrKwMhYWFsFqtMR2MdrvdhiadNpsNGRkZYjih2Ef9sY+JwT5Gp7CwUAyFqKyshMPhQGVlpTgpZoYkizW19Xh5xW4UFRWhtLQUw4YNQ35+PqxWq1g1KhkZGbDZbGLYUB6PB62trWLYUCaTCTk5OWLYcHqs+D2VCutEW1sb2tvbxbChLBYLsrKyxLDhGhoaxJDhsrKykn5AKhXWCb3/GbbUb4ffe0gMM1kkXTBZ1B/7qD/2MTHYx+j0+WSxrKwMQ4cOZbKoAyaLh6XCOpEKiQGTxcOYLHbQ+58hk0VKpFiSxaeeegoulwtlZWUYMWIE+vXrF/N+hc1mg8lk3BU5gUAAHo9HDCcU+6g/9jEx2MfoRPM/Xc9ksWetjUOykwoiIiLq/fx+P3w+H/x+P7xeb9D7aIvFYjG0KO02sohtSHRhHxNTxDYkurCPiSliG+IpRjM8WYzl9BAiIiKiaPBgNBGR/gxPFrkxJyIiIiIiSn2GJ4tgwkhERERERJTyDE8WeRoqERER6Y37F0RE+jM8WZRlmRt0IiIi0oWyT8GzloiI9Gd4skhERESkFyaJRESJY2iyyA06ERERERFR72BossjTT4mIiCgRuI9BRKQ/Q5NFIiIiokTg2UtERPozPFnkkT8iIiLSG/cviIj0Z3iyqBz540adiIiIiIgodRmeLPIW10RERKQ37lcQEenP8GSRG3MiIiIiIqLUZ2iyKMsyJEliwkhERES64aUtRESJYWiyyESRiIiI9KYcjCYiIn0ZmiwqG3Nu0ImIiEhPPBhNRKQ/Q5NFJolERESUCNzHICLSn6HJInjkj4iIiBKA+xdERPozNFnkNQVERERERES9g6HJIhNFIiIiSgTuYxAR6c/QZBE8TYSIiIiIiKhXMDxZJCIiItKLMqLIg9FERPpjskhERES9FpNEIqLEYbJIREREREREIZgsEhERERERUQhDk0WeKkJERESJwLuhEhHpz9BkUbsh50adiIiI4mU2m2E2m2GxWGCxWIJeR1sCgQB8Pp9hJRAIhLQh0YV91L+wj4kp7GN0xWiSHMdwn9PpFEMAgLPHD8bxZf3EMGpq6/Hyit0oKipCaWkphg0bhvz8fFitVrFqVDIyMmCz2cSwoTweD1pbW8WwoUwmE3JycsSw4dxud9JHjVNhnWhra0N7e7sYNpTFYkFWVpYYNlxDQ4MYMlxWVhYsFosYNlQqrBM2mw0ZGRliOG4t9dvh9x4Sw9h/oBEr1n0hhgEAVVVVsNvtYpgohMPhgNPphMPhECeFWLJkCdxuN4YPH46ysjL0798fFoslpoPRRv//0vvvMRrso/7Yx8RgH6NTWFgohkJUVlbC4XCgsrJSnBQzQ0cWZVmOaSNOREREFI2e7oAREVEoQ5JFk2RSTw9Rflqt1pCh2WgLgJAhWaNLMoauwxWxXcko8Zz6o3dJhXUCnSN7ySwmkymkXckoYruSUfQ41aOnJRXWCUmSQtrVk8IdciIioiOHIaeh7j/QiDUba3Q7DbWlpQVer1cMGyoZQ9eiQCCAxsZGMWy4nJwcmEyGHHeIKBXWibS0NKSnp4thQ/l8PjQ3N4thw+Xl5YkhwzU1NcHv94thQ6XCOqH3KfMmzy5AdothnoZKuujJaaiFhYWwWq0xncGkxylhsUjGvgP7qD/2MTHYx+j06dNQiYiIiPTQ0x0uIiLqXlKSRW7giYiIqCfEEUTxPRER9ZzhySI35kRERKQ3HogmItKf4cki74hKRERERESU+gxPFomIiIiIiCj1MVkkIiIiIiKiEIYnizwFlYiIiHpKvEaR+xdERPoz9DmLAwYMQFlZGYYOHYqCggJYrVb86U9/gtsd+syurvh8PgQCATFsKLPZDLPZLIYNJcty0p8tiM7n1CSbkevE0UcfjSuvvFIMp8Qz9ficxcP4nMUOfM4i9SbxPGdxxIgRKC0t5XMWI2Af9cc+Jgb7GB2jn7NoaLJYVFSkJov5+fmwWq2YM2cObr/9dnGWLnk8nqTvBJrN5qQnSbIso62tTQwbLj09PaZ/zolg5Drx4osvwmw2hySMqZAYMFk8jMliByaL1JvEkywOHz4cZWVlTBYjYB/1xz4mBvsYHaOTRcNPQ+3pF0SUbJdeein8fj+ef/55cRIRERERUZ9heLIIPj6D+gAmjERERETU1yUlWZQkiSOM1OsxYSQiSh7uRxARJZ7hyWJ3I4qSJMFisXRZtNcKNjc3o66urssSy/U6JpNJ/ZxofP3113j11Vfx2WefiZPoCMCEkYgoObrbnyAiop4zNFlUjgJ2dTTwwIEDyMvL67L88pe/VOt/9tlnGDNmTJflueeeC/oMi8WCBQsWYN26dSH/bL799luccsopmDVrVlA8kgMHDmDGjBlYtmyZOImOEErCuGHDBnESEREREVGvZWiyqJx+KiZoWjk5OVi0aBEWLVqEu+++W41XVFTgmWeewaJFi3Ddddep8ZEjR2L16tVYvXo1fv/736vxSZMmqfGLLrpIjaMzwXvwwQfx8ccfhySubrcbe/fuRXV1dZftBIDGxka1LUuXLsW3334rVqEjxFlnnYXvvvtODBMRERER9VqGJovQnDYSKRGz2+244IIL0NjYiBdeeAF2ux033XQTqqur8a9//QuDBw/GOeecA4vFApPJhJycHJSXl2Pbtm144oknUFJSgjPOOAOrV6/Gxo0bUVxcjOLiYphMh7u6fft2AMD555+v+eQO/+///T8AQHV1NX744QdxMkwmE9rb27FixQo4HA7s3bsXjz76qNru1157DQcOHEj6MxiJiIiIiIh6wvBkUSGO6CmefvppFBcX44477sDgwYPx7LPPYsKECbjpppvwzjvv4Pzzz0e/fv3Q0tICALjzzjtx3HHH4cEHH8SJJ56IuXPn4vrrr8cVV1yBJ554Aj/60Y9w9tlnByWnb7zxBgDgJz/5iRozmUxYtWoV7rvvPowfPx52ux2TJk3CwYMH1TrovEbypJNOwo033oiSkhL8/e9/x8iRI/HMM8/gjDPOwLXXXovRo0fj3XffDZqPiIiIiIioNzE8WYyUJKJztHHatGl45pln8Omnn2L16tVYtWoVzjvvPFx33XXYtWsXNmzYgFdeeQWZmZkIBAL41a9+hQULFqCmpgYvvfQSFixYgN/97nd4+OGH8e9//xsvvPAC7r33XvXh3GlpafjXv/4Fh8OhPqz6o48+wnXXXacmgPPmzcP999+PmpoaTJkyBUuXLsWXX34JSZKQkZGBJUuW4F//+hdWrFiBzMxMTJgwAW+//Tbmz5+PXbt24Y033sDYsWPF7hEREZFOxP2JSGcsERFR/AxNFsUNu+jAgQMYN24c7rvvPpx33nk44YQTsGbNGgDAhAkTMGrUKFx77bW48847cd999+Grr76C0+nE8uXLceWVV+KSSy7Bjh074HK5MG3aNNx666149tlnMW/ePKxbtw4AsGXLFrhcLpx33nnq515++eV45513MHPmTLz11luQJAnnnXceduzYAbvdjlmzZuG5556DLMt45JFH8Kc//Ql33303fvGLX+Cuu+4CALz00kv4xS9+gRtvvBEPPfQQpkyZEvUdVYmIiCg2YnLY3T4GERHFztBkUZKkkI27Vm5uLi677LKg8pvf/AZ33313UOySSy7B2LFjkZeXp16TqJSJEydi4sSJIfHc3FwAwH/+8x8AwKmnngoAyMjIwMqVK/HBBx9g1qxZyMnJwZgxYzBnzhz069cPb7zxBj788EM4nU4AUJc3aNAgDBo0CKNHj8bll1+O008/XY0phYiIiIiIqLcyNFlE55G/SEf/srKycOutt+L222+H3W7Hzp07sWTJEixZsgRbtmzB3r17cckll+Cmm27C+PHjUVhYiDlz5oQkhmK59957cfrpp8NkMmH9+vUoKSnBiBEj1M8dNmwYMjIygtqi8Pv9GDBgANLS0gAA06ZNwwUXXCBWC1JRUYH58+fD5/OJk4iIiCgBujoYTURE8TE8WezubqgAcM899+COO+6AJEm47LLLMHPmTIwbNw5btmzBqFGj8MEHH6h1GxsbsW3btrBl2bJlePDBB9HQ0AB03pxm8+bNGD16tJrI7dmzB2vXrlXL66+/DgDYu3dvUHzt2rXweDwAgIaGBtTW1oYtL7zwgnrqLBERESWGcuBZ2Z+IdCCaiIjiZ3iyqDxnMdJGXZIkrF69Gna7HQ8++CDuvPNOXH311fjtb3+Lyy67DOhMEBUDBgzA0qVLw5bp06drlgx89tlngPDIjPXr12PGjBlqufbaawEA77zzTlB8xowZ2LVrFwBg4sSJWLZsGV577bWgsnr1anW5RERElDhiktjVQWgiIoqP4cmiItJGXZZlLFu2DHa7HSNHjsTgwYNRUVGB3Nxc3HfffZg8eTLOOusscbaovPnmmwAQdKfSqqoq1NXVRVV+/OMfa5ZGREREyaQ98BzpIDQREcVPkuPYuio3exGdPX4wji/rJ4ax/0Aj1mysQVFREUpLSzFs2DDk5+fDarVizpw5uP3228VZYDKZ8Mknn2Dfvn1oaGhAXl4eTj/9dGRmZqK9vV19FEZXvvzyS+zevRvnnHMOsrKysHDhQrhcLsyePTuq+btiNpths9mCYiaTCa+88gry8/PjTmhjIcsy2traxLDh0tPTIyb/RvF4PD3+nfbEd999h23btqkj08ni8/nQ3Nwshg2Xl5cnhgzX1NSU1HUCnY/qSU9PF8OGUh4RpBeTZxcgu8Uw9h9oxIp1X4hhoPOgnN1uF8NEIRwOB5xOJxwOhzgpxFNPPQWXy4WysjKMGDEC/fr1g9VqFat1yWazwWQy7rh5IBBQL2kxCvuoP/YxMdjH6ES6z4pWZWUlHA4HKisrxUkx61lrY9DVjW3CCQQCGDFiBM455xxMnToV55xzDjIyMmJaxrBhwzB58mRkZGQgEAhgxowZmDVrVsJ2IAOBAKZOnWpIokhERHQk8/v98Pl88Pv98Hq98Pl86vtoi8ViMbQo7TayiG1IdGEfE1PENiS6sI+JKWIb4ilGMyxZVB6bkewRKCIiIiIiIuqeYcmiIpaRQSIiIqKuRHOXdSIiio/hySI35kRERKQX5SA0D0YTEenP8BvclJWVYejQoeoNbpYtW4b//Oc/4ixd8nq9Sf+nYDKZknLesJYsy/B6vWLYcFarNekHAVJhnfjZz36GM888Uwwbije4OYw3uOnAG9xQbxLLDW4WLlyI+vp6DB8+HGVlZSgsLIz5/1FOTk6PbzYRC73/HqPBPuqPfUwM9jE60dzIS88b3BiaLA4YMABlZWVBd0ONR0tLS9KTJJvNFtXdiBIpEAgEPXMyWfRY8XsqFdaJVEgMmCwexmSxg97/DJksUiLFkyyOGDECpaWlTBYjYB/1xz4mBvsYnWjyJz2TxZ61NgaBQEAtfr8/6H2sBZ0je8ksYp+SVcR2JaOIbUpG4TrRUVLhezClyDohtikZpS+uE0SpJo5j3kREFCVDRhZrauvx8ordQSOLBQUFsFgsuOeee2IeHZMkCWazWQwbSrsjlkzJPhUWnaNZyZYK64Tf70+JnRauEx3MZnNMIwyJkArrRDx/G5Ik4amnnhLDAICW+u3wew+JYY4ski56MrLYv39/WCyWmP7u9TjKH4veOpIRC/YxMdhH/fXWPho9smhoslhUVITS0tKg01AffvhhVFVVibN0yWq1GrZDrPxCxcTQ5/OFnPaotMmoHWVJkpJ+ihsAtLW1JX2H2Mh1IhLlOV/JZDKZkJaWJoYNZ/TGN5y0tLQeb5B7KhXWCbPZDJvNJoa79Mgjj+APf/iDGAaYLFKCMVnUH/uoP/YxMdjH6BidLPastXHobiNutVqRlpaGtLQ0WCwWtLe3o66uLqh8++23+Oabb9Qv+5tvvsH27dtDyueff64u9/PPPw+Zvn37dnz22WeaTwf+8Y9/4P3331ff33PPPbjllluC6phMJthsNrWdSlsXL16MWbNmAZ07aA899BBmzZoVUtrb29Wd+rS0tKh+6URERBQq2QcriYj6MsOTxe788Y9/xMknn4yTTz4ZBw4cwGOPPYYzzzwTY8aMwYUXXogzzzwTJ554IiZOnIivv/4aALBt2zbMnTs3qNxwww2466671OX+7ne/ww033BBSZ9GiRZpPB5588km89NJLSEtLw4UXXogXXngBNTU1QXW++eYb5Ofno3///mppbm5GQ0NDUN01a9ZAkiSMHTsWY8eORXl5OZYuXYqGhgZ8++23aj//9re/BS2fiIiIoqMchGbSSESkP8OTxe425i6XC5IkYdWqVTj66KMxe/ZszJ07FyUlJXj//ffxwAMPoKSkBDt27MAxxxwDABg1ahSmTZsWVEaPHi0uGpdccglee+01tZx++ulB000mExoaGrBv3z4EAgHcfffdGD9+fFAdADjmmGPw8ccf48MPP1STzZycHLEaAGDnzp1Yvnw5li9fjpdfflmNH3300Vi1ahXQ2WciIiKKnbJf0d2ZS0REFDvDksXukkRRUVER/H6/eudUCDeLCAQC6ut169bhoYcewtatW9Vit9vDJoPaIvr0009RXV2NHTt24LvvvsNZZ52lJnRafr8fRUVFGDBgALZs2QKHwxF0/aLJZMKmTZtQWVmJyZMnw+FwwOFwYPLkyZgzZw7ef/99tLS0oKioKGi5REREFBsmiUREiROaMSWIsjGXJCmmxPGjjz7Cli1b4HK5sHLlSmzbtg0ulwvLly8PeZ7caaedFlRGjRoV9E/kiSeeQEVFhVrWrFkDdLbprbfewoQJE3DPPffgiiuuwNlnn42NGzfi8ssv13xCsIMHD2Lt2rW46KKLgvokSRK2bt2Kr776Cl999RVWrVqF559/Xn2/ZcsW1NbWBi2LiIiIYqf8/41l34KIiKJjWLIYL+W6xIkTJ2Lr1q0AgJ///OfYsmWLmghWVFTA4XDgvffew4wZM/Dmm2/ivffew3vvvafWefHFF7Flyxbcdddd2Lt3L55++mls2bIFDzzwAGRZRnZ2Nu6++27cdttt+MMf/oDZs2fjqKOO0rQkWF1dHaZMmYJx48bhF7/4RdA0v9+POXPmwGw2o7a2Fi6XCy6XC7W1taitrcW1116LYcOGBc1DREREsePIIhFR4qR0smixWPDLX/4Sjz32WFD585//jCeeeAK5ubkwmUw455xz8Pjjj2PBggUAgOuvvx6PP/447r33XphMJlgsFuTk5KC4uBiDBw8GABQXF6O4uBi5ubkwm834yU9+guOPPx4nnHAC9u/fjwsvvBDHHnssSkpKcOKJJwa16+2338bo0aMxbtw4PProo/D7/UHT0fn4DCWJvfLKK3HzzTfD4XBg8+bNvEaRiIhIJ7xmkYgocQxPFmVZhiRJUW3Ut2/fHnTHUaXk5+cjLy8PkydPxiuvvIK8vDzk5eUhKysLAHDuueeqsZkzZ2LmzJnq+/POOw8AMHLkSDU2d+5c9TP37t2Lr7/+Gt988w2++eYbXHzxxbjmmmuC2vuTn/wEa9euxcMPP4zs7Gw1Lpo/fz527NgRFJszZw6GDBkSFCMiIqKe4WmoRET6MzRZ1F5X0NVGXbk+cfTo0SHPWKyrq0N9fT3cbjdWr16NadOmwe12Ryx/+ctfsGDBgpC4ttx5550AALvdjpKSElx33XWYOHGiWmbOnBmULGZlZeHHP/5xl31QrFy5Evfee29QefHFF9Ha2oqVK1eioaFBnIWIiIiIiCjpDE0WtTe5iTSyWFJSgoqKCrzyyisAAI/HE7Z4vV54vV74/X71dbjS3XSlDgCMGDECH330UUh5/fXX1TuydqWqqgrLly8HOhPiDz74ICTRraurwy233ILGxka88sorqKio4EgjERFRD0XaryAiovgZmiwquhpZnDFjBpYuXYqlS5fCZrOJkxNKlmUEAoGwJRperxcejwfofLSHmOBqE90BAwao/bzgggvERREREVEMIu1XEBFR/JKSLPLoHxEREemJ+xZERPpLSrLY06N/ZrMZJpMpbImVON/nn3+ODz74IKhOTyinshIREREREfUmsWdXPRDN7a3Xrl2LWbNmhS0HDx4EADz77LOoqKgIKbfccou6nL/97W+48MILQ8r8+fM1nwbcc889uOeee2AymbB9+3Y8+eSTeOihh4LqWK3WkOVcdNFFuPTSS/Hoo48CAL766itceumlarnxxhthNpvxyiuvqNdfEhERkb6UfYqeHogmIqJQhiaL0WzQjz32WKAzaTzttNOQm5uLpUuX4rTTTlNvRDNt2jS88cYbQWXSpEmoqalRl6M8suK3v/2tWux2e1AddD4qw+12w2w2Y+7cuXjnnXeCpgOA3+9Xl3HGGWdg8+bNmD59Om677TZceOGFAIBjjjkGt912G2677TYUFxejoaEhrpFOIiIiil40B6KJiCg+hmczXd0JFQB+9KMfYezYsbDb7ZgyZQrOPfdcAMAvf/lLFBUVAQC2bt2K888/P6i88MILwpKAQYMG4ZRTTlFLbm5u0HSz2YyPP/4Yq1atQmNjI/7nf/4HgwcPDqqDzpvVnHLKKRg5ciSWLFkCu92OXbt24Sc/+QmOO+44AEBGRgbGjBmDQYMGYcuWLTj99NPV5zESERFRYnV1IJqIiOJjeLLY3cbcarXCbDarry0WS8hrl8sFSZLw5ptvqiOL7777LhYuXBi0rL179+LVV19Vy969e9VpTU1NuPvuuwEAFRUVuOuuu9Dc3KyZ+7Cmpib8/e9/x5QpU2C327F+/XqsXbsW5513HlavXo3W1laYTCZUV1djypQpGDduHK688kr85S9/wRlnnCEujoiIiHTW1YFoIiKKj+HJoiRJXSaM8+fPx4wZM1BTU4PCwkL1sRL5+fk4cOCAWq+mpgbnnXdeyAijklCeccYZGDx4MN544w3MmDEDb7zxBgYPHqwmb8888wzWrFmD9evXY8GCBdi8eTNGjhyJcePGqZ+h9cYbb+CCCy7AokWLsHbtWqxatQozZszAxo0bkZ2djRdeeAGXXXYZpk+fjkceeQTp6ekYM2ZMyGgmERER6a+rfQsiIoqPJMexdXU6nWIIAHD2+ME4vqyfGEZNbT1eXrEbRUVFKC0txdChQ1FQUACr1YqHH34YVVVVal2r1Rrx6KDX64Usy/B4PGhpaYHZbMbxxx+P5cuXY+TIkUDnNY/a5yJ+8803KC8vx65du3D00UercZPJhG+++Qb/+te/MGHCBOTk5AAAHn30UWzduhWvvfaaWheaJHf79u2YMGECfvjhB7S2tqrx5uZmeDwevPLKK/jVr36FtLQ0AMCsWbMAIOSmOXqQJAnp6eli2HBtbW1J/yetHXlOFq/XC5/PJ4YNZTKZ1HUvmVpbW8WQ4dLS0pJ+3XAqrBNmsznmZ9Y+8sgj+MMf/iCGAQAt9dvh9x4Sw9h/oBEr1n0hhgEAVVVVsNvtYpgohMPhgNPphMPhECeFeOqpp1BfX48RI0agrKwMhYWFXe5DhGP09tLn86n3XzAK+6g/9jEx2MfoZGRkiKEQlZWVcDgcqKysFCfFzPBksaysDEOHDkV+fn5IsvjFF1/gueeeE2dX2e12TJs2DevXrwc6d4zvu+8+XH755SguLgYADBkyBLm5ueq1gg0NDVi9ejUmTZqEvLw8AMDEiRNx1llnhU0km5ub4Xa7gxLL1157Tb3xjbK8yy+/XE2Qzj//fIwfPx51dXUYM2YMPvzwQwwYMAAA0N7eDui0coiYLB7GZLEDk8XDmCx2YLJIvUksyeKSJUvgdrsxfPjwuJNFt9tt6P8vm80W1Y6enthH/bGPicE+RqewsFAMhdAzWTR0T0qW5S6/oLy8PAwcOLDLoixDGdGbPXs2Bg0aFHTjnLy8PAwaNAiDBg3C6NGjMXv2bIwePVqNiaeG3njjjeojMS6//HLceOONQYlHuOUVFxerbRKXd8stt6iP0Pj1r3+NW2+9Vb0Ok4iIiPQXS5JIRETRMXxksbS0FMOGDQs7shgtvUaRmpqa8MYbb4hhoPPxHF0NTft8Pni93qBYa2srNm7cGBRD54iow+HoMlGOB0cWD9NrneiJVBhF4sjiYRxZ7MCRRepNOLKoP/ZRf+xjYrCP0enTI4tIsSN/2dnZmDp1atjSVaIYSUZGBiZPnhxSxo8f3+MVg4iIiIiIyEiGJovdnYZKREREREREqcHQZDGVRhWJiIio9+O+BRFR4hiaLIIbdSIiItIRz1giIkocw5NFnopKREREeuPBaCIi/RmWLGo34tygExERERERpTbDkkVlNJGJIhEREelF2a/gWUtERPozLFlUcGNOREREepFlmQeiiYgSxNBkkYkiERER6Y37F0R9j/J3LcsyAoEAAoEA/H6/+rqr4vf7o6qrrROuvjambUe4otT1+/2QZTns8iItI1w7ws0fLqbcDyZR94WR5DiW6nQ6xRAA4Ozxg3F8WT8xjP0HGrHqzf+iqKgIpaWlGDZsGAoKCmCxWOB0OnH77beLs3TJ6/UiEAiIYUOZTCZYrVYxbChZluHxeMSw4Ww2W9KP6qbCOmE2m2GxWMSwofx+P3w+nxg2XFpamhgynMfjSchGMxa9dZ2YN28efve734lhAIDk2QUEGsQw9h9oxIp1X4hhAEBVVRXsdrsYJgrhcDjgdDrhcDjESSGWLFkCt9uN4cOHo6ysDIWFhbBarTH9P3K73YZuJ2w2GzIyMsRwQrGP+mMfE0Pso5JwKcmXNjHSkiQpJKZQpslhzkBQ+qjUEX9GEm5Z4eYJF3O73UCYA1xi3XCn1yt1CgsLg2Jms1n9aTKZIEkSfvWrX8HhcKCyslKtGy/DRhYlSYLJZFKL8l6SpJgLNHdVTVZR+pTsIrYrGUVsUzIK14nDRWxXMorYpmQUrhMdJZ7voat50MU/UKJkUtZ3Iur9ZFmGz+eDx+NBW1sb3G436uvrUV9fj0OHDqlFea9M09apr6/HDz/8gEOHDsHlckWso53/0KFD+OGHH8LWUYrL5QqZN9xPZTnhpmk/U4lpl6u0O9w8yk+Xy4WGhga4XC60tLTA4/HA7/eLX2WPGZosan8SERER6UU50EFEvZ/cOarY2tqK5uZmNDU1oampSU2QlOJyucKWhoYG1NfXB9VTEixtUZKwH374ISRJFJMz7TQlodO+F3+KMbFd2raK7VNi4X4qy1M+v6mpCc3NzWhra4PP59P9TDvDTkNdvWEPjjrqKPU01Pz8fFitVsyZMyfm01ATlTnHwmw2w2aziWFDybKMtrY2MWy49PT0pB8ESIV1wmKxJP3UZL/fnxKnJht96ko47e3tum8wY5UK64TP54PX6xXDXXrssccwa9YsMQwAMHl2AXLHaTRaPA2V9MDTUPXHPuqPfUwMbR+VRNHtduOoo45Cv4JsyP5WcRbqJJty8d133yE3NxcZGRm45ppreudpqERERERERF1RRhbb2to6fjZ+DvfBrSxhSlP9R+oAks/n0/2ggmHJopbenSAiIiIiot5P7ryZjd/vh9frTfqZY72B3HnTy0ScUZWUZJGjjERERKQn7lsQ9S1K0kjdU74rZUBOz4E5w5NFKcxtZImIiIh6gvsWRH1LIhKfI4Ec5tEePWF4sgge/SMiIiIiogiYIMZO7nzEld55VlKSRa4AREREpCe9d5CIKDmU5wQfCflCg7sZ+/bXieG4aLeBen53hieLich4iYiIqPcbNHAAAv5WBHwt3ZacbBuysixIt8kwS17I/lbIgVYE/C1RFwntkGTjiuyPrX16FPZR/8I+JqYofYTcBshtMMEDBNogyT5xU9Fn/O2lavzfjgYxHBe/r+N79PuakZeThrzcLLFKXAx7zuKajTUoKipCaWkphg4dioKCAlitVtx2220xP8fF7/frmjHHQ5IkmM1mMWwoufO2wslmNpuTfgAgFdYJk8kEk8nw4y9BUmWdsFgsYshwXCc6xLNO1NXV4bHHHhPDAJ+zSAnm/n4rfJ4fxDARHUFkWYbP54Pb7UZdXR0Gl56F/FwT2ltqxaq92pZtO/HWlu8hyz786pIKDBo4QKwSFZM5E7acMfi/LYswYMAA5OXlwWazIS2nHNb0gbBYLDCZTHHvqyclWRw2bBjy8/Pjflh1S0tLzA+Z1lsyHlYqCgQCaGxsFMOGy8nJSfoOcSqsE2lpaUhPTxfDhvL5fGhubhbDhsvLyxNDhmtqaoo5SdJbKqwTHo8Hra36PciYySIlEpNFIpJlGV6vF42Njfjuu+9QUnZ2n0sWd+7eg03bXJg8eTIA4O23/x9++j/2uBJGJVn84J0nUVRUBLvdDovFAlfLAPjRD/369VNj8UjuHj4REREREZFAvXQt5mGt1Pf3VTswZ84cVFRUoKKiArfccjteXVUtVouJduRQkiTs2fNf7Nq1C3V1dT0aUEn6yOKmTZtiHh3zer096rQeLBYLbDabGDaULMu6jhjEKzMzUwwZLhXWCZvNFvdRG71wnTisvb096SOLqbBO+Hw+eDweMdyl7OxsjBs3TgwDHFmkBOPIIhEpI4tutxvff/99rzwNtcHdjHVvvofa/XXIy81C+aghGDd2NABgX20dqj+zoLKyMmie+fPnY/K5Req1hlu27cS+2jrU7q9D+aghGD3quLAjj+LIonIa6ttbv8ahBgt+9KMfYdSoUXHvmxmaLA4YMABlZWVByeJtt92GX/ziF+IsXfJ6vUl/SKfJZIr7NFq9yLIc805gIlit1qSfhsp1okMgEEh60ozO0y+TzePxpMQ1i8leJ/x+P3y+2G4OsHLlStx3331iGGCySAnGZJGItMniwYMHMWjoz5Cf13uSxbmP/R0ZOUNx5ZVXoqSkBC6XC9XV1Xjrn2+gqF87igf2R27haXA4HEHzLV68GEOOacC72z9Dm68ffvrTs1BRUQG73Y7q6mpUV1fj29r3ce2vzwuaL1Ky+NaW/ThYb8LJJ5+MkSNHIisrvhveJD1ZnDNnDm6//XZxli55PJ6kjxiYzeaUGFlsa2sTw4ZLT0+P+6JZvaTCOmGxWFIiMUiFAwjJvp4XnSOLyT6AkArrhM/ni/kAwmOPPYZZs2aJYYDJIiUYk0Ui0l6zWFdXh8HDzuo1yeIrK7bh/J9fh5KSEnESAKCmpgaPPfYofvrTszBlypSgafPnz0f1R/+H+Y8/EfF/Zk1NDd5Y9QQu/t8z1FikG9y8taUWB+vNOOmkkzBq1Ki4k0VDh4OSnVAQEREREVFqkzsfMN+bNLib0e4vipgoAkBJSQkef/wJ1NTUoLr68DWKK1euBAAsfn5pxEQRnfO3+YvQ4A69maF6jadAeW5lvAxNFuP1zTff4PPPPxfDMTGZTKirq4v6eq6vvvoK33//vRgmIiKiFLft/a9w0x3P4KY7nsE33yf3rJOu/GnBRtx0xzO45/5XYTLHdz0RUV+jJDdqghN/nmOonbv/i4qKCjEcVlVVFVatWoWamhq1VFVVidXCGnJcKWpr64Rox/clJthKTIzHwvBksbvM9oMPPsCrr76qlgMHDmDZsmW466671DpffvklFixYEFLWrVsXtCyLxYK6ujq1/OIXv8Brr72mvm9tbUVraytWrVoVVL788kvcc889eOWVV4KWR0RERKlvX20dXly2Fi8uW4t9ITtVHfZ/0xhTaWrt/tnK39T5sf3f33RZTObDp+lvfXcXXly2Fuve2BK0HKIjmZLcqElO/HlOSpszZw7mz5+PX/3qV1EnigBgt9vDjCyGJoQSOhLF7nKv7hieLCodidTwr7/+Glu3bsXWrVsxa9YsbN26VayC3bt348knnwzKlsUvCJ3XFV544YW48MILMWXKFEiShEWLFqmx999/HyaTCdu2bVPL7Nmz8eabb4qLIiIioiS78NJ5GHPaTRHLM89vEmcJy2TOxIk/viym8vt7l4iLCfHgI3/FhMkzuizWtEKYLJkwWTiSSNSdSPlCKho96rigU0ujUVFRgTlz5ojhLlVXV6N81BAxrNJ+Z3p8f4Yni4pwyZ0kSTjnnHPw29/+FjfccANcLhcGDRqkTtfecdNut+M3v/kNZs6cqZYLLrhAnY7OG1xs374dCxYswPjx4zF48GAMHjwYM2fOxD//+U84HA6kpaVh7ty5ePTRRzF37lyceOKJQcsgIiKi1FBTU4O9e/dGLC5XgzhL0jgcDrVor2HKLhiD/KPORv5RZ2Pz5s1B8xBRMFmWAR0SHiPk5WbhYN1XYrhbXV3jGM53B3aqj9fQEhNDWach2aQli+G0tLSguLgYEydOxPTp0wEAo0aNAgBs2rQJFRUVQc8s++6774JOM62rqwv5orZu3YoLLrgAI0aMwG233Ybbb78dS5Yswb333qsmrFarFRdffDHeeecdNDQ0IC8vDwDw8ssv49FHHw1aHhERESXHgseqsHbFY0Hl5Rf/rE4vGXRsUP1oXHnFpXDXbe22/OVPN4izdun1ZbPx2tJb8NrSW3Dp9IniZCLqQtB1i2EGmFLVKWOOVm9Wkwjz58/HtF+OFcOAcPouNKehIkwiGYuUShYzMzPhdrvxzjvvAACuuOIKZGdnA51H6NatW4dAIKDeJWjKlCnqKaUXXnghbr311pDn/RUUFAAA9u/fj9raWuzbtw9utxu5ublB9WpqauB2uzFo0CD1YdTl5eX48Y9/HFSPiIiIkmPsT44LKTmZh3eCigeFPrC6O4GAF17PwW6L36vPqOXu6jX4+IMX8fEHL0Z9MwyiI02kS8yitW9/+GuVE+20seX4bOdG1NTUiJN6rKamBm2N/0HxwPDbOTW57iSj59crItWSRVmWUVtbi4kTO47A/fGPfwyafvTRRyMQCMDhcARdZ6iUZcuWhTxrb9iwYVi4cCFefPFFbNu2Dc888wzsdjtmz54NAPj+++/x/vvvo6GhATU1Nbjooouwb98+oDNZHD9+fNDyiIiIyHgWax6aWs34ps6PT//zA977v33Y8NanWPb3t9Q65cdHvo4nVbyz9UNseXcntry7s0c7w0R9mZLkSJIU8W6o6zdsx8xbH8f6DdsBAMtefQvLXu3YHjjOqVLjRrv21+fh5aXzQhLGmpoarFy5EosXL4bT6YTT6cSmTZuC3i9evBibNm0KmXfTpk14+YW5uPbX5wXFDwt3naImcezBtsbQZFFpqBzhzjxWqxUXXHAB7HY7Nm/erI4qan322Wd4/PHH8ec//zls0d4RtbW1Ff/+97+xe/du2O12XHzxxSgvLwcAvP/++/jqq6/w3nvv4cYbb0RJSQm2bt2KjRs34pNPPtF8IhERESXbpKmzMbh0IsrHXIhxZ/4aF0z5DS65YhaWvvg60HndT05W6L7Fw4++gKpZL8L5UPAd0xPNZMkIeyObGTfOwQ03P4Qbbn4IO3bsCJpGRB2UkcVAICBOUpWPHIJly99C+agh6t1Bp089EwBQ/d4zmHDuKcIckW3ZthO1Oo5GXvurs7DoL3fB6XRi/vz5amKoqKioQElJiXpNs/IanUlldXW1mjw+Nu8RbNv8YheJIqC9Zezh01C7v7FoNAxNFoPOPw7D6/Vi7dq1eP3118Mmiui8yY3ZbIbJZApbzObDt7Y+cOAAHnvsMezevRslJSX405/+hP3798Nut+Oxxx7DihUrMGnSJGzbtg3r1q3D0qVL8cADD+D6668P+kwiIiJKruLiw6de2e12lJSUBJ3GedrYcsiyT32v2PyvrXhh6XKsWbtRnAQAaHA34d33v+q2fPqfH8RZu5TXf5x6I5v7H3xCjZ8+7idq6erh20RHKu2oYsc1i2KNUIueXa0milu37ULFqddg67Zd2LptF44beQlm3vo4Fj27GuPPrVITy0lTZ2P9hu247KoH8PLyw2co6OXOW6dh2CCPelCopqYGLpdLrKbSjiYqd1XdtGkTTiq34bqrf66pGZ44eqichtrTU3oNTRYVXTX66KOPDpl2wgkn4PTTTwcAlJWV4cYbb8T1118ftpx33uGse+jQoVi6dGnEcscdd0CWZfj9/pDP/PnPf847oxIREaWIB5xXY9eHr2PfF+uw59NX8dF7z2B0eZk6/Xd3/jqovuKyS3+BWXf8GjOuuVCcBABYvXo9fn7hrd2W3/+h+0dnRGPtinlY+fJsrHx5NvcziCJQEkZx/zycRc+uVk8/ReeBo9zOu4Uqr6dP/RlmXD0JeblZWL/hPXUkccK5p+CCc09Bg7s54rWAPZGbm4XBgwer77UJoTKiqC3h6uTmhd75NJxIg3GR4tEyPFmM5pcuOuuss2J6WKUepk2bpiaoRERElFxZGT4cPcCErAwfAv4WzJ33d7ywdDkA4IrLL8LR/Q+fWaR1ycXn4o6bJ+OaK4PvQSDupHVXohkFfMB5tXrzmkhFrxvlEPVV2kGlaBKdS6b+DJLccc1itEaPOg6QgZ27/4t1G7ZjwnmnilV0kZebhYaGBvWaRKfTicrKSkyZMiXo8TpKqaysDKrbs1PVo0+4u2J4sqiI5pdPREREpCWZrHjk8VV4cO5TQGfSd+uNZ4vVuhTwt+DfWx6PqTz3xK/ExYTIzpJw7NHZQSXPnoddn9Zi/cb/w0uv/hNzH38Ny1f+Hz75zw9Y+/pjcNdtxcfvv4iAv0VcHNERK+jStW5yhty8LFx39c/x8Lxl4qSI8nKzMOG8UyBBwsLHblZPYdXb6FHH4aTRmfjdnVfh97NvCbqJjVi0N7+55/d3YtbtV+DXl/4Yg+Ie8Yw+4e5KUpJF5fxZIiIiomg1tZpxz32v4qFH/gp0JorrVv4lIaeP9dTX37XhwkvmYnDpRFxyxSzMmv0YHpr7Vzw096+4fuYfcfqZv8boMRfipb//Ez5v5OuYiI402kTRZDLBFCHZ2fnJf4HOaxSnX/QzuBua8fC8ZdiybRfc7mZs2bYTO3fvCXrd4G7Gzt01aHA3Y/2b2zH+3CoMGXkJJk2drV7LqLcJ556CO26ejFtv+CluumYMfnS8DybPDjQefDeoDDn6IH50vA83XTMGVdePw523/C9OG9txY85ohOZW+uRbSUkW9Wg4ERERHRkkkxWvrtqBE398GZ5Y+DegM1Fc+/o8HFUY+W6JyVL79SFM+uVvsflfWwEA48efhpk3/gqzZ83E7FkzMXHCT1FSUoKamhrMuOEePLd0m7gIoiOaJEmwWCywWCyQhGeoKy4491T8sH8Vpk89E3m5WfjvJy/ht7dOx7ix5err0aOGBL3evGE+HnBeBQBY9ff7Uf3eM6h+7xmMHjUEu3bvET8iIYoHDkD5qCE4bWx5UCkeOKBHB76CRmM1Me3PeIT/9hOsJw0mIiKiI4sc8GLnrv+odxKcNPEcbN44P+J1ipGYzJmomvUipky7P+7y6OOrxMWGePP/7VRvUvHSkoew4sU7ce/vpuDWmWfj1pln4/mnq/D2G3NxwgmjAAALnlwKSbIISyE6splMJqSlpaHRtR8ZucNDHkPTU1dc9QBcDU1wNTRBBjBIc8fl3qirG4hGikdDkuOY2+l0iiEAwNnjB+P4sn5iGHv3u/D31Z+jqKgIpaWlGDZsGAoKCmCxWPDAAw/glltuEWfpkpg1J0NXvxAjmSIcbTFSV8/AMQrXiQ6p8D0gRdaJVPjb6K3rxKOPPoo5c+aIYQCAp/HfkP2hp8ztP9CIFeu+EMMAgKqqqqhuDkLk/n4rfJ7wj6hwN7bjpjufxfXXXIhTTyoO+5gMxSuvbcMNNz8EAFi/ehFOGXM00JksVpx6Nfbu3SvMEb1Lpl+AvzxyrRgO8szzmzFr9jwAwBtrn8NPKgrFKjBZMjH+nCp8/PFuVFRU4K1193fZJ6IjSSAQgNfrRXNzM+rr65GZOwTHjz4H7oPvIuDT7/reXbv3IC8vq0cjeslmMmfCljMG/976FPr374+8vDzYbDa8vWU/DrrMOOmkkzBy5EhkZUV3V1WRIcliTW09Xl6xOyhZzM/Ph9VqxcMPPxzznU6tVissluQegfP5fPB6vWLYUJIkIT09XQwbrq2tLek7xKmwTni9Xvh8yf1HrxyFS7bW1lYxZLi0tLSkJ4ypsE6YzWbYbDYx3KVHHnkEf/jDH8QwAKClfjv83kNimMki6aKrZDEWkZJFyWTFxre/7PJZZ90ZVDxAXV4kTa1mnPjjy9TP+fnEczB61BAMGnQMXC4Xavd/j12796inqd416zrcNnOCsBSiI5csywgEAmhra1MTxpz8oRh5wnm6J4y9XUeyeBI+2vY0BgwYgJycHFitVry1ZT8O1ptw8skn9yhZTO6eFBEREZFB5IAXZ48fjKmTT4y7dJcoAkB2hh9bN72g3sVwzdqNeODhpzDjxjmYNfsxLHhyKTb/ayvsdjseefj3uOPmX4qLIDqiSZ03t7HZbMjKyoLdbof70Jf4ZMebyC38H91PSe3tJKlj4CT4TCJ9BnIMH1ksKyvD0KFDObKoA44sHpYK60QqjCJxZPEwjix24Mgi9SZ6jSx+8p8f8ObGDwEA0y8+M+ZrG/ViMmdg12f7sWXrR2hqklGztwZ2ux2DBg5AefkQlI8cguwMvzgbEXWSZRk+nw8ejwctLS1wuVzILSjFiNHnQ/Yndz88lXi8Xnyx8yXk5OQgMzMTFosF/3ynFj/0xtNQmSzqh8niYamwTqRCYsBk8TAmix2YLFJvoleySER9hyzL8Pv9asLY3NwMjzcAWTbD7/dBjnQDFxnKc+nDU2YR6kiSBDkgH44ry5E7p0Hu+Nn5mRIktW7YdsRKBiSTBMiArDRS0wbls0ySCebO0deMjAxYrQFkZmbCZrPBZDLhrXdq8X29CSeddBLKy8uRmRnfaGxS9qR0+SKJiIiIiKjPUw58ZmdnIz8/HwX5ucjJtiI3Jw252Tbk5aSFltwwMXF6mDq52bbgeG4a7LnpyMtNQ25Ox2dpPzM3x4bc7I6Sl9NRV2yTdnq3JbezfudnKTGlDfbcdOTlpHX0PzcNWVkWpKUB6enpHY8a6TwVVUlqJUnq0Y0Hk5IsxnN3PiIiIiIiOrIoeYPZbIbVakV6erp6HWNBQQHy8/O7Ldp6sc5TUFAQ8lmRlqGtK9YX57Hb7SHzd1XsdrtalFheXp566qnNZoPZbA6bY4WLRSspySIREREREVG0lITRZrMhLS0N6enpSEtLQ0ZGRtiSnp4e9ev09PSgeEZGRsiyxenhSlfLE0tmZmZILFJcWZY4LS0tDTabTb0cK1JSGCkeDcOTReUUVJ6KSkREREREsVJGG00mU8RiNptDYmJR6pjN5pD6yvtwnxMuFm7eeEq4ZXe3vK6SwZ7mXIYni0RERERERJR4kuZmPPFIWrLYVQZMREREREREPdOTRBHJTBZ72nAiIiIiIiIKJXU+Y6OnA3SGP2extLQUw4YNQz6fs9hjEp+zqEqFdSIVnqln4nMWVXzOYgc+Z5F6k8mTJ+L6GddAArBnbw087R5AlgFJ6vip0O78RDO9M6Y8pgydjyqTlelBO1OaB5lpl91ZJ2gZyuldYeoFza+87pgp+HW4uuL7MPVDTi3Tvoamv0HLlTu7J3xfCrEPcufz5JTpmnkkkwmQO54CF/o5Yfqr+RlUX/uzs37Y6VLHzq8cCET+HDGmCDctTF9D6gntCtLVcjS/H8lkUtsc8XsSlyH+fpXfg9gWsY3KNFnuXIWFNiO4n6HfsxINX18h4fDfANBNnTDfTUeFML/zSHXC9VERzfTOmLbdYdvXMcPh7yDou9F8Z501U/nvf/0bb2DgwMH4ySn/gzFjxmDkyJFxP2fR8GSxrKwMQ4cOZbKoAyaLh6XCOpEKiQGTxcOYLHZgski9icPhwE033YSioiLs378fHo9HnSZ37jCLryOJVCdcXIyF7Ih1QZxXb2I7xLZ19dnh2qbEwk1T4rF+1wqxbd3RtkUR7WdBmF/7OhAIhCxH/BxovluxrvgdybIc9P9E+3nid6n9DG1c+178KU7X0n62dj6xjrgcROiXEpc6n71nMpnU70v5LOW9dn6lrtg/JSZ+pnZaONp+iMtRPlvbL22bxPYp9cS2if1X4trvM1xMu9yuiJ8ZKS6+jxTT0vZbodzMRlx2OM888wyOP/54TJw4EWVlZRg8eHDcOYPhySJHFvUjMVlUpcI6kQqJAZPFw5gsdmCySL2Jw+HA7373O5xwwglobGxUd5S0O46x7MyJotlBi/Q54aZpf4rLCCfccsVpIqUuwvRXXE649+I80RD7rbwW60QzXYwpxDZrY4qupikCgQACgUDQ9lapK2uSH4XYbiWmnU9bT6GdR9IkWpG+AzH50fY3XPu0yxD7bTab4ff7Q+aXNEmVdprSPu0yxfZoP0s7XaEsQ3ktxrtbhjYutkP73WnraT9DXK72M5V5w7VP/FxxuWIdJa5tZ1f1JSHJ1rZNaavSL3FZyrza5Sq0y1HqKXEAsFgs6nMmlfnF5Wjfz549Gz/+8Y9x8cUXIz8/H9nZ2XHvJxueLJaVleG4445DQUEBk8UekpgsqlJhnUiFxMDEZFHFZLEDk0XqTRwOB+bMmYPTTz897E6VskOmvFamaeOKcNPFepGWL8YjUeohQjvE99o4Iuzkhaun1V2drtrR3U+xvvY9NMvWvg7XHnFapHoI891rp4ebR2y3z+dDW1sbmpqa0NjYiPb2dkBoKzQjU8o0aJIOhTgPOj9T0uy8m81mBAKBoHZr26pdhjYpUupG6pP4Wvn/JSZEYoKitE2bpCivxf5q32v7qcynLC/SPOGIywr3GeGWpfRVTK7E7wPCqGKkaWLM1Pk4CW0ip51fESmGMOumsgxluWazWY0pvydlPqnz8RfauLYdYt1wy1DWAbPZjPT0dOTm5iI7OztswqidT5IkXHXVVTjjjDNw5ZVXqo/diFdSkkWehqoPicmiKhXWiVRIDJgsHsZksQOTRepNHA4HnE4nHA6HGjtw4EBQHTqy5OTkICcnRwwDnTvGXq8X9fX1yM3JhAkusQpRn2AyZ6ChsWPfJjMzE2azWawSpLKyEg6HA5WVleKkmBmeLPI0VP0wWTwsFdaJVEgMmCwexmSxA5NF6k3CJYsPPfQQhgwZElSPjhxffvklzj33XJx88sniJMiyjNbWVvzwww/Iy02Dr+k9sQpRn2BNK4S7fTAyMjJgt9thMpmwZ8+eiNtGJospkBgwWTyMyWKHVEgMmCwexmSxA5NF6k3CJYtPPPEELr/88qB6dGSZO3cubrzxRhxzzDFBcVmW0dbWhm+//Rb59kwEWrYHTSfqK6xphXC1FiMzMxN2ux1msxlvvfUWzjzzTLEqoHOymNw9KSIiIiKiLtxwww2YO3cuGhsbxUlRHayu/foQtn3wXzHcqzS4m7Fl205s2bZTnIR9++siTqO+Rbu+v//++0HTEsWwZFHpnHghJhERERFRJNnZ2bj++uvx4osvipOiUnxsATJyyjB/0Vbs218nTk556zdsx67dezBu7GicMOo4bN22C7Wd/Vi/YTskAOPGjsbggUVYv2E7GtzN4iKoj6mrq0NNTY0YTgjDkkUmiUREREQUj6OOOgr5+fkhCWO0+5dF/drxhz8+DKSdjFdWbBMnp6x9tXUYPWoIThtbDgDIzc3CaWPLseXdnVi/YTsmnHsKigcOAAAUFw/AhHNPwa7de4SlUKx27d6Dh+ctS7mDC8odVevq6gy75MewZFERzekCRERERCKz2Yy5c+d2WZTk4dNPP8Wjjz4asfzjH/8IWrYkSeqzzLRMJhO2bduGTz75JCgezqefforJkydj48aN4iTSwXnnnYeamhp8/vnn4qRuZaa14aOP/g8VFRWYfvlvseGtT8UqKal2f52aDGpNOO/UiCOIqZbgRKPB3YwGdzPcEfpktJ27/4tBxQMwd94yLHp2NR6etwyznc/i4XnLsHP3HtzlfBZz5y3DslffwqJnV4uzJ4zyaIzvv/8eFosFdXWJ/10bniwSERERxUOSJLz77rt49913sX79ejzwwAN44IEHsH79ejWuqK2txZYtW7BlyxYsXboU9913H+677z41tm/fvqBlv/vuu8jOzsbWrVuD4iaTCeeffz4WLVoUFA/nnXfewebNm7FmzRpxEunkf//3f/H222+r76MdhMjLzcJ3+z8EAFRXV2Ps6RfjzX/Gd41fg7sZD89bhpm3Po5lr74VMm3Rs6vVaT1N3PbVfieGgM7+jOscbRSVjyyJmEg2uJvx0vJ/hr2+scHdjHUb3sO6De/1uN2x2LV7j9re3NwscXLS7Npdg/KRQ7B12y5s3bYLDe5mDBo4AE89txqDBg7Avv11WLb8n9jZzUiusk4senZ1yPeq/D4enrcs7O8kkrq6OuTn5xtyKiqTRSIiIuoVfD4fVq1ahZdeegmBQAAlJSWw2+0YNGgQFi5ciJUrV6rJwznnnINVq1bhd7/7HQCgpKQEADBhwgSsXr0aV111VdCy161bBwA47bTTguIff/wxAGD16tUR77BssVjwzDPP4M4774TD4cALL7yARx55JOl36T4SKKflReMnY47C35c/BwD46U9/iv/81xvzjW8a3M0Yf04Vnnp2DfbV1mHmLY9j5q2Pq9Mvv+oBzHY+h52792DmLY9j0tTZERO3aBQXh44qKsKNOAJAXm522M/cuXsPKk69Br+59c+YPPX3qBh7jVpvX20dxp9ThSuuehBXXPUgJk2dnfDTWffV1mH9hu0Auv/9xZKgh+t7rMaNHY3f3joNF5x7KqZf9DM84Lwav71lOsaNHY0ZV03Crt17UDywCAvm3YxLLvqZOLtK+V7nznsZc+e9jB+deo3afmVd+s2tf8ZTz67B5Km/x8PzlomLUGnX8z179iAnJwfNzT3va3fCb/WIiIiIUsz777+P8ePH45hjjoHb7cby5cvx7LPP4uOPP8bIkSMxefJkfPbZZwCAZ599FuPHj8e5556LkpISvPnmm3A6nbjzzjtxwgkn4Morr1STOUmSsHPnTowfPx5+v1/9vMbGRlx//fWw2+1wuVyYO3duUMIoSRLmzZuHgQMH4o477sAVV1yBJ598EjfddBPuv/9+DBw4EDfffHPU19VR7JTT8qJ10uhM/PD9XpSUlODee+/FP97+Evu/rherRbT+zfdQu78OTzx2M1a/ej/uvHUali1/C1u37cKWbTuxddsuPOC8Gps3zMfqV+9HbW3H6JNelESoofO0TXGkCgD27f8OeWFG6C6/6gHY87Kw55OX1LYpp1A+PG8ZavfXofq9Z1C97Rm4G5pxl/NZcRG6Wb9he+cppzIACXm5WWHbDE3CpU3Q73J2JP0AMGnqbMx2PqdOmzR1dtD88SguHoCdu/eo32+Duxmy1BEvHzUED9x7NaZPPRNPPrdavZ40HOV73bxxPv77yUsoHzUEs+d0fK/adem/n7yE6VPPxNx5L0dMdiVJUtd1j8eDjIwM7NmT2IQeRieL0R75ISIiIhKNHDkSF1xwATZs2IB3330XU6dOxZ///Gfs3LkTr7zyCsaNG4eRI0cCnSOE48aNw5tvvomFCxdixIgROProo/HJJ5/gxhtvxOmnn64+B7WpqQmbN2/GxIkTAQDNzc3Yvn07Tj/9dOzYsQNvvvkm7r77btx3332YOXMmtm3bBrPZDFmWcf755+Ouu+7C119/jYsvvhjHH388Ro0ahd27d2Pu3LmYNm0a939SSF5uFoYVe3H6uB/Dbrfj8T8vwHMvfhA26Qpny7ZdAIAJ554CAGqisG//d+pInBIrH9XxwPRdn8S/Q1+7//ug9+vffA9bt+3CXXOexaJnV2PZ8n+GjLRJncmX1r7aOtTur8O0qWeqN8kpHzUEL3fO+4bmZjnFxQNw/rmnqKde6mlfbR0enrcMgwYOgMvdhEEDi7Bvf11Ie7XWb+hIqla/ej9Wv3o/pk89E091ntK5fsN72LV7Dx5wXq0m77t278HWzt9TT5w2thynjS3HhHNPwWljyzsS/87vKzc3C1u37cTggUXibEF2fbIHp40tV0eBTxtbrib56zZsR15uFqZP7XhWorLedNV2WZYhyzK+/fZbWCyWvjWyqGTDsRz9ISIiIkLntYOzZ8/Gli1b8MADD2D69OnYu3cvPv74Y0ycOBELFy7Eli1bcPnll+PTTz/FwoUL0dDQgBdffFE9FfWll17Cgw8+iI8//hg7duxQb0SjXKeonIL65JNP4txzz8XgwYOxbds2lJeXY9asWXj66afxr3/9C+effz5qa2vVz9m5c6c6Xfmchx56CO+88w5eeukl3vAmwWJNxouLB+CXF5Th5xPPAQAsWfIi3tpSF3XCGM6+2jo1scrN60h8ukqAohXu7qbLXv2nmoA2uJuj+px9+zuufRykOa1VO1+Duxl5ne2Gpp6eyeLD85Zh63u7MH3qz7Bl204MGliEnZ/sURPvSNZ3JlVK8j3hvI76W7ftVK8XVBKt6VM7TgmN5fq/SHbu/i927j58mvJpY8sxfeqZWL9hOxY9uxrj/mc0rrv650HziBoagr8/5Tuvra2DW/jOlVOOG9xNakwkSRJaWlrQ3t6OjIyMvnXNYqx/yERERERa5eXlGDduHMaNG4fTTz8d99xzD2666SacfvrpanzcuHHIzc1Vj8DLsoycnBxcdtllKC4uDoor+yZr1qxBSUkJRo8eDQC47rrr8Omnn2L16tUYNWoURo0aheuvvx4XXXQRPv74Y2zbtg3HHnsscnNzMWjQILWUl5dj9uzZGDduXFA8Ly9P6AnpKZ6BiOLiAbj9NxNw0003wuVy4Y/3PYIVa7/oNjlSdu7FeqNHHYdBnaNHtbUdSee+zp+Rri2MRl5uFvbtP5yIDiouwoyrJmHGVT/H6FHH4QHn1UHJ1rLl/wx7WuSgzhEwpU0KJXkRE07l88R4PHbu3oPLr3oA48aOxmmnlmPre7sw4dxTsX7De+qoWne0SVW4m+AoCbpC/P3EY/So4yBBUm9wo2ho6Ejmov29hrvDa/moISgeOCAomVTqKb8rkbLNqqurU0+hP3TokFhNd4YliwomjURERBSrQCCAa665BjNmzIAkSXjhhRfw/PPP///27j8uqjLRH/hnBlBUGLAf5CqD4LbdFCj77t0FUpObt0hN9N67orhZdMUrbeYPSkl0V2rVwlzQtNSEfdVqQtK3b2mi1NZqSuh+97tpgNvu3qsIaC5tGzOIyq853z+Y53jmOWeG3z/Ez/v1OjnnOc9zzpkzh+l85jk/8NZbb+HYsWMYPnw4Fi1ahIULF2LUqFHIzMx0OatJHubPn4+4uDiYzWYcO3YMDzzwgHq9or+/P773ve8ZHrM4HA6MHTsWiqJg1KhRePTRR3Hs2DG3w6OPPoqoKM89J9Q1Rp9TewSPGo6fzBiHJ554ArW1tdi9Zx8+OXYRmc5HIhiZHhcNAMjMykdldQ02ZuUDACLDwzDtkdZpO3L2o7T8LHbktl4PODGm9UeIzprmPCUUzt6tiPAwJCZM0fXIVVbVYOL9xssKsQYhwDJMnU9lVQ2KS8rU3rqI8DAUHj6pBtPCwycRGR7WpbAonlO4MSsPr2UvbZ1v0UlMiI7A6owcpCTHy00MWYODXHputaFKrJ/dGbpEr5wI7l0V4XzG5YSYCJcexZTkeOfNeTyb9kgUSsvPqXd8zdv3qfpZRIaHtZY597W9+1r/FZ+JTHx31dTUYMiQIQCAhoaGHj8VtdfDotCZX4GIiIjo5vbTn/4Ue/bsQXp6Onbu3ImdO3fisccew7p167Br1y61nqIoLr17YlAUBbt371ZP36qurkZFRQUmTpwIOO9s+swzz6jD008/DZvNhs8++8yl/Ne//jUAwGKxYNKkSbph9OjR+Oyzz2Cz2dR1ou7XkUucRBCqrG495bSyugbhY4MR9cPvYdasWaioqMCKtHU4VHQS092cGjkhJgJpqYnYmbMf90UvRFn5ObyWvRTW4NYAsD5jAQqLTiI2bjl25hxAWmqiYU9fR0U6H+Hgjs1ej+ITZR57u1amzkVxSRnCxs3D5LhlCLEGIS01EQCwISMZADD54WUYH70QVdU1WO8s64zKqtYgXVfXiLAxP8DP1xfgzJ//hp+lzMHqjBy8vG4JAMBk9lGHk3/8Ghf/1iDPCtM1Ibyyugbpa3MR4rzRTGT4GADAXudjSjKd4V206Qpx0yLBZruMAMswtWdT9Pp68tSCeIQEB2Fy3DKMGTcPdns9tmUtBQCkJMcjIjwMi5dvwa3BM3Go6CTSUhM9BnS5Z3HIkCE9/qzFXg2L2l9+OvsrEBEREd28hg8fjtraWtjtdiiKgtraWpw/fx61tbUuxxZ+fn5YsWKFbkhMbD04FuTrFY2OT2bMmIFJkya5lNXW1gIARo0apVvGihUrMG/ePJf61HO8vLzQVl6srKrB4ws2oKqqBqvX5qCs/Jz6wPX7f/x9xD04FqGhoVAcTVifkWx4qqOwMnUuTpXswv6C9Th1Yhfmak6lTEmOV6edO7MXK1PnurTtLKuzN0q+flEoKz/X5imdYt1SkmcgLXUujhZtVsNlRHgYjhZtRlrqXHVaV0Ku6OEbHToaxz//AuPvHY/qi3bcF70Q9/2vH+Hnv9yLX20txPJV72Bp2ptYu+F97H2nCCaT/nEz0+KikJI8Q330hN1ej/UZyQhw3qhHG95F4PIUmttrQkwE7gkfg7x9n6g9iokJU1xuZOTu8xCs1iB8cWIXduemY1vWEpw6sctlu4q75m7LWoKjRZvbtb988803as+ir69vj1+32Kthsb2//BAREREZ2bZtGx577DEcPHgQTz31FJ5//nkcO3YMa9aswcqVK+XqOoGBgQgNDcXw4cMB5/WK48ePh9VqBQC0tLRg69atbQ6pqanSnF2J5VDP8vLywuDBg2Ey+8DsPVSerBKnhJaeOYuI8DBMi4tST8W0Bgfh6LGTiPnRGOwvWI/0jByUlp/1eN2b1RqECTERhqHS07SuiAgPQ63B4zIOFp1sd7CzOnsTU5LjdetntQYhJTle7fHqCrHtbLZ6RIb/AEc/K0ZtbS1CQkYCzmsMf/ijB/DdP77B+MhwnDv7V489auszkl0CuvYUXG14786ADuf1kQEBrY/1EAHU037hzrS4KCQmTNFtc4gb5yRM6dA2F3dyvnbtGoKCuh6MPTEpRj+htSEjI0MuAgA8NHk0xt51q1yMqgt2FOz/CkFBQbjrrrtw55134pZbboG3tzfWrVvX5heurCOnHPQUcZFpX3P3gODe5HA45KJex33iOu4TrbhPtOrMdvjVr36FX/ziF3IxAKDp8h/haNY/k6z6Yh3eO/hXuRgAsGzZMgQGBsrFRDqxsbHIyMhAbGysWrZt2zbMnz/fpZ4g9u2O/J3Jfw/V1dUIDAzEsGH6g7iu0C6nI+tHnl26dAm/+93vkJKSAjjDfX19Pb799lvcEXQrmur/iJYmu9wM+QWfYu7sB7Ez5wCs1iBMi4tCXsGniBzXet0YNHfULCw6icXLt+DoR9d73vqT4yVlCLEGISQ4CMdLSnFP+BjDENKXjpeUYubsNZgQEwFvnwAMG9KMO//ph3j26YfhN8yE+qve8BsK2OuuQHE0IXD4bbDbr8DfzweK0hqE+oPCohOYGBMJxXnjogjndYbidWn5WYRYr1872VN8Bt+G2qtWDBkyBMePH8fx48fx/e9/H3/4wx+wZs0ahIW5Bs2kpCTExsYiKSnJpbwzeiUsVl+sw4GPKnDHHXfgrrvuwve//301LK5duxbPPfec3MSjxsZGl4fm9gUvLy8MGjRILu5ViqLg2rVrcnGv8/X11f3Pt7f1h33C29sbPj4+cnGvamlpQWNjo1zc68TpEX2poaGhz0Nrf9gnmpub0dTUJBd7lJ2djeeff14uBgCYG8sARX8gxrBI3aGjYZFuPnJYVBQFTU1NqKurwz/+8Q+MHBmE5vovDANjR5SVn4W1F0JAZ5WVn0Np+VkkJrQ+KqK/ab1JzgnY7PWt4aq6pttOD+0tIiiKIF5cUqb+oCBeVzofgdGRXsHOEGFx6NCh+Mtf/oK3334b4eHh6uN5ZN0ZFnu9C0Jk005kVCIiIiIilclkgo+PD/z8/HDLLbfg4sUaNJnHwsvHIlftkIjwMf02KMJ5Smp/DYpw3vwlMWEKUpLjkZaaiG1ZrTcBupFogyI0Pc/a1+JGO71FURSEhYWpPwJbLF3bz9ujV8MiAyIRERERdSeTyYRBgwbB398fw4cPR03Nt7jm+EGXAyPd3Prbqb1w7uu33347rl27hubm5h6/XhF9eRrq8OHD4ePjw9NQu4CnoV7XH/aJ/nDKIU9DvY6nobbiaah0IzE6DXX79u19/rdM/cfly5cxduxYxMfrn9GnPSW1pqYGt90aiEH4c5dPSSXqaz6Db8PlpjAMGTIEFosFqampGDlyJIYMGYJnnnlGrt6tp6H2WljcX3QOI0aMwA9+8APceeedDIvdgGHxuv6wT/SHYMCweB3DYiuGRbqRGIVFoo5wOBxobm5GXV0dvv32Wwwf7o9hvgoUAK3/cRKHLR0+Cu4kUzcuS1537bzl5Yhxd+VansqMpsmM6mjbw8N6ytqaDg/rZjQuaJcvxuV1E+Q6bS3L03zk9y3PxwOTCTB5DcaVq63H3EOHDsUvfvEL+Pr64s4778ScOXPkJjdmWNT2LI4ZMwa33HILw2IXMSxe1x/2if4QDBgWr2NYbMWwSDcShkXqDoqioLm5GVeuXMGVK1dw7do19RhBURTdMYsoE4fERnfZFdM9tZWnybR15GUK2nm4q9+e5Qju3pd2XvI82xqXy+X5i2kys9kMh8Ohm5dcV56P2WzW1RHTjN4TDOYhyuTp7uYhl7mbLs/XUz2j8vasm9lsxqBBg+Dn54ehQ4fCx8cH27ZtQ01NDaZNm4aYmBh1GcINHxZ5N9TuoTAsqvrDPtEfggHD4nUMi60YFulGYhQWt2/f3uff73TjURQFDocDLS0tcDgcLv8/0B60wyBYeBp3Vy4HATkQyHXhXK52PbTT5bae/hXkZWjnYaS9yxC06619LetoO3ldjerJ71OeLsjz0tbXttOWy6/djQttLduonbZMLjd6LcZF3StXruDJJ5+E1WqF2WzGnj178Ic//AFJSUkYP3682ka4ocMiT0PtPgrDoqo/7BP9IRgwLF7HsNiKYZFuJEZhsb89OqOurg52ux3BwcG6A0AtuZ7RM3CVfvAs1ptBW9tYPkiXy42mG00zqie0Z5o2HGjL3b02mqfRNKN6gqdpso7UhbTdO9JOS16mPO6pTJCnyeTtLsra2o5G4zAIp9r2Yro7Ru0A4PDhw3jggQcwcuRIAMDBgwfx3nvv4aWXXjK8yU13hkX9N1cP0n5wRERERB1hNptRUlKCkpISXLhwARcvXsS+fft0w8mTJwEA9fX1eOaZZ3TDRx99BDhvlrJp0ybd8PHHH6vL9Pb2xjPPPIP6+np4eXnhzJkzmD59ujodzuWI9RLrVlZWptYzm82YMWMGIiMjXYb09HSYTCb86U9/UttR9zM5e/DcDWazWVemLTeabjTNqF5HppnNZrfzM3ptNE+jaUb12jNNHjpSV9SX31NHB7mtPO6prL3LNqrXnu1oNC63k9vLbeTBqJ0YtEaOHIlr167B19fXpbwn9GpYlN8oERERUXuZzWZMnToVq1atQklJCex2O44dO4aVK1eisrISb7/9Nl5//XVUVVUBzpudTJo0yWWorKzE6dOnAQB2ux3r1q1DSEiIOpSWluLAgQMuy929ezdsNhvS09MNbyZRWlqKvXv3Yu/evUhMTDR8SHZFRQWWLFmC3Nxc5ObmYvTo0bDZbDCZTHj55ZfdtiMikg0fPrzXztjp1bBIRERE1FUvv/wyfvKTn+Duu+/GvHnzEBgYiBUrVmDSpEm455578JOf/ARwXjLy9ttvuwwiKGolJiYiISEBCQkJiIyMdJlWXFwMAPjwww8xefJkw0c2REdHY+vWrXjttdcQGhqKe+65x2W62WzGrFmzUFpaij179mDPnj0YM2YMYmNjoSgK3nrrLdx7770ubYiI3PH19VVPSe1pDItERER0QxKndcEZDMUZTN7e3gCA2tpaHD16FDk5Odi1axd27dqF3//+91iyZInLfDIzM9VTUI8dOwY4z4b6+uuvsWjRIjzxxBPYsGEDvvzySwQEBLi01fr8889RW1uL+++/36V8+vTpeP/99/G73/3OZfjlL3+JN954w6UuEVF7jBkzRi7qEQyLREREdEM6fPgwFi1aBACIiIjA7t278dlnn+Gxxx5T64SGhuKhhx7CXXfdhYcffhgPP/yw2sZisWD16tVQFAXbtm3Dl19+iYkTJ+LRRx8FAOzduxeLFy/Gtm3bkJ6eDkVRMG3aNHXeWl9//TVSUlLw05/+FP7+/i7TDh8+jKSkJCQlJcFkMuG+++5DUlISsrOzkZKS4lKXiKg9BmxYFL/68fpFIiIi6iyTyYSpU6eirKxMN+zZswcmkwlWqxVlZWU4c+YMRo8ejTfeeMNlusViQVpaGlatWoWAgABMnz4daWlpeOSRRwAAzz33HEJCQrBz507813/9F5577jkEBgYiNDTUZT0KCgoQExOD+fPnIy0tTbOWrVpaWnD+/HmcP38esbGxCAwMxAcffID333+/z+/kTUQ3puHDh8tFPaLXw6K4IyrvjEpERESd5eXlhYiICISHhxsOH3/8MR599FGEh4dj7NixOH/+PBISElymizuUhoeH4/z580hLS1PvVFpUVARFUfDll19i9+7duHDhAqqrqxEYGIjt27er66EoCiIiIpCfn4/nnnvO7SN73nzzTdTW1qrj48ePx+TJk13qEBH1N70eFomIiIi64uDBg7reRHmIi4vD66+/jsLCQhQWFqK8vBzFxcXqeHR0ND788EO1fl1dHaqqqtRx0bsYGBgIm82G6dOnY/r06Zg6dSqmTp2qXisJAGPHjkV0dLTHH8JDQ0Nx6tQpHDlyRB12794Nk8mEoqIilyBJRNRf9FpYVDQPnjX6tyOD3EZeRmcHeR7yuLtp7l57GkQ9d/Xlcnnc3aCdr6dlaKfL5XKZ0aCdt7ZNe9t3tH5b9dqzDnK5GJf/lQfBUx150LZp79DR+kbt3M3DqFwuk8fbMwjtmUd767U1yG3ldejsIM9DHnc3eHpf8rhc3tZ0d+PuBu18PS1Dnk50o1AUBfPnz0dtbS2qqqrQ0tLicRg1apTbwc/PT1dfO4gewoULF+L06dO6wV0PojBhwgSUlpZCURQ0Nzfr2p8+fRoffPABTCYTiouLcc8992D8+PHybIiI+lSPhkVFUeBwOKA4Wv9taWlBc3OzOjQ1NaGpqcmlzN2gbatt19TUhMbGxg7NSzuIdi0tLbr28rg8iOmNjY1up7kb2morl7c1P7mevI3k9qJMWy6Py/MUg3ZbyW3k5cqfuTzI85bL5X89vXZXJo/L5fK/YhDr3t735G4f1Q5G7bXLket7KjeabvRexLrIy5bnK4+7G4zmLca1+638PrV15XZtDdp5ib93MZ+++PvX1pf/VrVt3c2jrbZyubv5yIN2udo27tqLA2I5RBL1Vy0tLdi6dSu2bt2Khx56SJ7cI+QfW4x+eDEijnsEua0YHA4HXnzxxV59T0RE7WVS2vq2M5CRkSEXAQAemjwaY++6FdB8KTocDlRW2/DB4bO49dZb8YMf/ABhYWG45ZZb4OPjg7Vr1+LZZ5+VZ6VjMpnUL2Zx4CPK0cFfyLXzMho3oq1jMpng5eUFHx8fw+lymfZmPmJcOy9RLrczIk+7evWqy3Qjcht5XC4zmm5ULsaHDBniUk8m3qPJZFJ/iZXn1VWNjY1oaWnRbU/tZyBve0Euk8eNGNXx8fGBj4+PrhzSekCzH4jX7hgtxxOHw4HGxkZdm7bmI6+LvL3k9qK+IE/z9fV1mS63F2Vo4/0LRu1FOdzMo6GhwfCXf3le8rgRbR2j+u7KvLy8MGjQILVM3pZG6280L0Fu666eVktLCxobGwFnG7FMk8kEs9kMLy8veHl5wWw2q9Ozs7Px/PPPS3NqZW4sAxS7XIzqi3V47+Bf5WIAwLJly3rt4cF0Y4uNjUVGRgZiY2PVsm3btmH+/Pku9YiIbiaHDx/GpEmT1GcrXrp0CXa7HSNGjIDFYpGrIykpCbGxsUhKSpIndViPhUXxa3VzczMqKr/D//7wL7jlllswZswYjBkzBsOHD4eXlxcyMjJcwqI4APJ0IKQNi3A+Z0k+KBQHRDA4AHbH04GYvF7e3t5qWNROg3RAKM9TTDcitzGan7aeoihoaGiQ5nKd0TzEaxi8R0+M1k20FWFRXpZcT15eW+NtlUOzTNET0xZ5XkbjMDh4F2XitXZc1PXx8VGf7SXaeZqP/J6Mpmv/FdNk2v1fhEW0sRx5mlGZURv5tTwuXg8ZMkRdZ5PmRwKZu3nJ5Z64+/sXYVFeN3eM3oc8TS6Xp0Ha7tp9QjvdiLwMo/lp64nX7oh2LS0taGhocKlrNpvh7e2t/ujl7e2tjpvNZmRnZ2PVqlUu8xMYFqknMSwSEekNuLCoOHsUxalQ/332G7x74M+wWCwICwvD6NGjMXz4cHh7e+PFF1/EsmXLPB70CIqiwGw2o6GhQXdqh3xgBc1Bqnbe8oGW/PaN5mV0YKYNi3Jd+b3Iy5HryOPacjjbi3lo52MymTz2LIr5atfL0/vVlsHNgaj8PhVFga+vr3qhv3Z+RsuT68hl8jq7I9cXPYva6Waz2eM8BHlZ8rzlciOKMxgMGjQIivNzcldX0NYxem00D1Empov1FvW0vUiiXP4bMKKtJy9XXoYReZ1Fz6LR/GRtTRcUN5+p0baD5gcE7bzF+sivBaN5deb9C97e3uo+Idd1N64th4e/f6NtoSXmK/YJ7fqJ3sRBgwZh8ODB8PX1xeDBg+Hj4wMvLy+8+uqrDIvUJ9oKi+LvwYj4G/Hy8jKs09LSAsX5PWJE+6NTXV0dAMDf3x8mkwlvvPEGpk+frh6owfk3aESshzzd4XCgoKAAkZGRuPvuu12mERF5MiDDojhAuXr1Kq41Dob3sPvg4+OjHpiIL/NLly7h9ttvdzkwMqKdrg0FfcXkPIVL0B7weXotuHufHaE4Q3lf8/LykosA6TPTbofuIO8v2h6kviJO42vrvbY1vT3k968t78/7hDvu3o/Q1nRBu237wz6h/Z7o7r//9lAMrq0yOQ+2Tc7v0vLycgwePBhDhw7FkCFD4OPjg61bt2L16tWG68mwSD2prbDo7e2N8PBwTYvrDh06hJEjR+LnP/85Dhw44DKtoqICdXV1aGlpwRNPPIFTp065TAeAsrIy9fhiyZIlcDgceP755/HOO+9g69atyM/PR3R0tFrf3XzeeecdjBs3DjNmzEBFRQXgvBPq/v37ER8fj3nz5mHOnDlyMyIitwZkWGxqasK1a9dQX18Pk3cgxo2fg2t1/wNFaftUQSIi6nmDhlpxub4JJSUl8PX1hb+/P4YOHYrXXnsNa9asMeyhYVikntRWWDSZTLhw4QKmTp2KTZs2wWKxIC4uDh999BGio6PhcDhw6dIlVFZWqu3Pnz+PhQsXqmFx5syZmD9/vhrYqqurMXbsWHU6nEEwICAAK1eudBsWxY9i6enp2L17N/70pz/Bz89P/YFG/FCUnp6OqqoqrF+/Hj/72c8YFomowwZkWBS9ipcvX4ZisuDeHz+G2ku/haPlityMiIj6gNlrCPxvmwB7XYMaGC0WC3bs2IG1a9eqp6VqAyPDIvWktsIinGdxREZGYufOnQgODkZERATOnDmjHkQtWbIER48eRUhIiNoGAAoLC9Ww+Nhjj7mExXHjxqlh8euvv0ZMTAwA4JVXXsG6detw/vx5HD582CUsmkwmnDhxAnPmzMHkyZOhKApeeukljBo1Sq1z8uRJzJkzB++++y7WrVuHU6dOITMzk2GRiDqkL8Oi8Qn3XSTyp8PhUG/RTkRE/Yuj5Srq/l4Mi/9gTJ48GS0tLbDZbLhy5Yr6SJIWzeM1iPqayXn9oM1mw969e7Fz504AwPbt21FfX6/WGz9+PObPn+8y2Gw2dfqKFSsQGRmJyMhITJ06VS3/+uuvMXXqVCxZsgTPPPMM1q9fj48//hijR49W68DZqxgfH49FixZh165dWLVqFUJDQxEeHo7c3FzU19dj6dKlmDNnDjIzM/HP//zPeP/993Hvvfe6zIeIqL/rkbBo0tyMQb5ehoiI+g8RGH0Hm3D//fejpaUFdrsdly9fRkNDA5qamtTrYPldTv1BS0sLnnrqKYwaNQp+fn5YtWoV/Pz81P300UcfRUREBD788ENs2LAB58+fx/nz59X998MPP0RVVRXWrFmDsLAwlJWVoa6uDg6HA/7+/lizZg0SExORlpaGnTt3utzURmhpacH27dvx5Zdf4u9//zvmzp2LF198EdXV1ZgzZw78/f0REhKCgoICTJ8+XW5ORHTD6JGwqD2gUPrJDTeIiMiYCIyDBzVjwoQJ8PPzg91uR319Pa5du6b2MCqKAsZF6kvl5eWwWCwICQnRDWVlZbh48SL8/f0xceJEjB49GoGBgZg4cSImTpyIsrIynDlzBnv27MGePXvw2WefoaKiQh0/dOgQ/P39MXfuXIwdOxaVlZWIioqCw+HA4sWLXU5rvXDhAo4ePYq3334bxcXFqK2tRV5eHg4cOIDjx49DURSsWLECycnJKCsrU9ulp6dj0qRJ6jgRUX/XI2FRS1EUQH9DvQ6rrKqBzX79FBMiIuo+rYHxcwwe1IytW7eiqakJNptNFxjZy0h9qbq6Gp9//rnhUFJSgrKyMuzduxd79+5FbW0tIiMj1fHCwkKX9gAwadIkdby4uNhlWdu3b8emTZuwceNG2Gw2l5vmVFVVqe1MJhNmzJjhdj579+7Fpk2bsGnTJhw7dgzl5eUu04mI+rMeu8FNQ0MD6uvrUVtbC8VkwY8nLejSDW5Kfv8/2Jidj4R/j0Hi7AflydQLbPZ6VFb9DaXl5xBiDQIATIyJlKvp2Oz1KC0/i8qqGoRYgxBivQMhwa3tiah/MZl94H/b/Whs8sGJEyfg7e0Ni8WiPlpjkPJneJkuq4/fEHiDG+oO7bnBTU8zm83Iz8+Xi3HPPfd06PmIJpMJhw8fdrlWEgBCQkJcbpRDRNSWAXmDG+1BhHzr9c4I/p4/li17Dn+3DcfTqVtQWV0jV6EetCNnPzKz8lBV/Q1GW++ACSbY7VeQnpGDzKw8w8/jeEkpMrPykLfvE9jtV9R2hYdP4LEFGwzbEFHfUhxNqPv75/DC3xEdHY3m5mbY7XZcuXKltYexsfH6Kakd/62RqN9zOBxISEjQDR0JinAeC8XFxenmw6BIRDeSHgmL6IFTlKzWIFy68EesXbsWL2XmImvbx8gr+FSuRj1gR85+TIyJxIaMZEyLi8KEmAhMiInAtLgobMhIxrzZU5C+Nscl/GVm5aG8vAJpqYlISY53aZeSHI89uek4dPgkysrPuSyLiPqe4mhC/Xen4IW/Y9KkSTCbzairq8OVK1fQ0NiI5uZmhkUiIqKbQI+FRa3uOqB45F/vwRdf/AGhoaH4ze53MCxwPP4tcT17qHpQ3r5PEBk+BhHhYfIkldUahNeyl2JjVh7gvL400OKHRckz5KouFiXPwPac/bwWlaifqv/uFBxNXyMqKgomkwmXL1/GtYZr6iORGBiJiIgGtl4Ji91xGioABFiG4W/Vf1THk5KS8NZv3sHm7ceR6Qwq1L0qq2swISZCLtYJsAxD4uwpKC4pQ2ZWXptBUXg+NRE7cvbLxdSDGM71CotOYnHqFixO3cIzFiT1351C89WziIqKgq+vL65cqUdDQ4N6KioRERENXD0WFrXXLXbnAcU/3emPL774gzoeGhqKN998E2Mj4xgYu9nxktJ23cBGmBATge05+xHpoRdSZrUGoYo9w72msroGdhvDokzcgGlCdAQ2/ipP/QGjtPwsjpeUAuqNms611tXss2L8eEmpGsTlOje6q3V/RvPVs/jhD38IH+9BaHRet8hrF4mIiAa2HgmL2rvkdVevoiD3LgpJSUn4njWKvQLdqLDoZLt6FbUCLMM6FDABIGJc2IA6sO6PbPZ6HC8pQ6BlGKzWIPYuGgixBiExYQrCw1v3x8ysPDyT+ip25hzA4tQtKDx8Ao8nb8DqjFzcF71Q7UV/PPklrF6bg5mz18Bmr0d6Rg42ZuVj5k9WD6he86t1fwYAtDha0NTUpJ6Gih74niciIqL+oUfCIpy9iT31i/M/3emPI0eOyMVYtmwZGpVg3jSlD028P9Lj9Y1GIsPHdPozE4/l0PbqtIfNXq/rDRqoSsvPobikDBOdwX+gv9/OKjx8EmPGzUP5mXN4KjkeibOnYGpcFCqra1BZ1fpjRoBlGPYXrMeEmAhUVv8NhUUnsTJ1LrZlLwUA2GyXsTPnAAICWkN5ccn1h3F3Vmn5Wezd9wkys/JwsOhEu39Yqayu6VS7trQ0t6C5uRkOh6NHvt+JiIio/+ixsCg/g6s7BViG4S9/OqaOHzlyRH324/Llz+HT4m+67cCoI46XlGJx6hbEz16N+NmrkZ7heodQd46XlCI9IwfzF2zoULue1plPTwSSjrAGB6Gy6m9ysUeVVTWIn70aY8bNQ2zccsycvQZjxs1D/OzVHred6PkZH70Q90UvVNtNjlvWLQf2/YnNXo8dOfthcp4iDACK8+8nwDJMrn7Tm/ZIFHbnpsNmq4fFMgzzkzcg0OKH6XFRah2LtN0CLMNQWl4Bm3Rqb+LsKUhLTcS0Rzp/i3yxj8fGLcczqa9iY1Y+Hl/wEu6LXoj0jFy5ukq0uy96oa7d06lbuvxjgcPhQEtLC8MiERHRTaBHwqI4gNBet9jdou77Htb+PA1wPsT36NGjCAsLw5tvvomMF9bhvQ//6jE0dCdxcDZz9hrk7fsUxSVlKC4pw86cA7gveqHbaylt9no8tmADZs5eg505B1BYdLJd7XpLZw4qrcFBclGbQjp4WqTY3kbhrrikDLEPLzPsqaysqsHkh5dhZ84B2KXllZWfQ/zs1QPmNObjJaXI2/cJ5iVMgdXa+plUVtUYbpf2EuFT/CAyf8GGdm2vzrbrTa0B2k99vEvevk+ROPtB7C34BOerahBg8UNAgB8CLH6Acz8PsPhhQ0YyysrPIt/5fgIC/JCWmojMrDw8vXwLQjrx94A29nEA2OncnrK22uXv+xTxs1fLxR2i/X4X/zI0EhERDUw9EhYhB8UeyItWaxCmTBqJ7OxNAIC1a9eioqICTz75JJ588kn8+38k4hfrCjoUQjprfvIGl4Oz1gPJ6z0QG7PyDa9dSl+bg0NFJ9Xx9rbrLZ0Jfr0hfvZq9aY4AZZhWJ+xAOszFqgH5jZ7PeJnr9Z99plZeS7t0lITXdoBwGrpeZE3Gpu9Xn3GZUpyPEqd4dBmq0fxibIOX4Mq5BV8ivHRC7E6I1f9QaSw6CQWL9+C8TEL3W6z0vJzHtt1Jbx2p5TkeKzPWAAA2J2bjpTkGUhJjsfRos14LXspdueuwrS4KOzOXQUAeC17KabFReF4SSms1iBYLEPVHtuVqXOxv2A9Tp3Y1entrd1XQ6xB2F+wHkeLNiMtNVGtk7fvU13olvdx0U68Nzh/GOnqD1FyOOypHwWJiIiob/VIWBSnoKoHFD30o3NEeBhuD/gOGRkZiI2NRWxsLADgzTffxL/8y78g9dlVWLJily40dKe8fZ+4HPCKg8SzZ/YicfaDavnGrHyX9TheUqr2RgBAWmqi2k57QCi36019tVxPCotOuNw99ehHm5GSHI+U5HjsL1ivhm3RmyVUVtW4bO/duelYmToXKcnxOPLRZpegmbfvE7XejeR4SSkWL9+CeQlTsCh5BvL2fdLaa2urR2HRCZf9sSMqq2qwePkWtTc2wDLM5YeEKmdvlry/iF4ubS+uUTt3QbO3FRadxOqMHKRn5CAzK0+91k9+X1opyfGYGN0aCI9+tFnd/yqrazy280TeV7dlLcWEmAhEhIdhZepcl89Ru6/a7PUu7da/kKy2S0mOx8rUueq0nTkH1NddxaBIREQ0cPVIWNT+6iz/At3dpsVFYZCpGm+99RaeeOIJtby2thb/9m//hmef+wV2vdlzB//aX/YTEx506UlY/0KyS3gpLDqhTsvb59pOeyC3MnWu29AzEB0vKUVk+Bi52NDBw9d7YqfFRbmED6s1yOX5jtre3ryC6/uAONVQCLAMc2mnPeC+Edic12EeKvo9XsteCotlGDKz8jDx/kgoCrAxKw8pyfFys3bTnrYYGR6GUyd2tQ4lu9T9tKqqRrefZmblqUExxBrk0k4bzrvay9VdpsVFYX1GMjZkJCMtNRFpqYkItPhhY1Ye0jNycFDz96uVmDAFKcnxsAYHITMrD2Hj5mHm7NUuZwl0hPZ7IjI8TNc7mZgwRX1dXFKmhtJi5yM+oD731PXHAe0+YLPXd6lXV3u3657+jiciIqK+0yNhUftLc0/e6EZISY7Hn74sQmhoKEJDQ9Xy2tpaPPnkk3h46mN4ZfO7Lm26izaQJM6+fhAH5wHbVM3NMbR1ta+nxelvgjE34fqBXlcO6roiwDLMY+/I8ZJSlyAxf8EGFBadxPwFGzA+eiHGt3EjDqGs/Fy7n81Ydub6tpAPouE8uBa0202cjglnj7RM+xlUVnW+V6i3ic9gYkwk1mcsQK2tHqszcvBUcjwslmFYnZGDtGev91R3VGn5WZee3N256epNXuRwru2tMuodE8Heag1S7x4KAIcOn+y323tCTIQaIO221tObCzWnjssiw8e43FCoM7Q9rUangsvzrnLeqbWtfVzuES49c9ZlemcwKBIREQ1sPRIW5QMIebwnrEydixPH9iE7O9slMIrrGOOm/yfe+PVhlzZdJW6nLxgdoIU4by4Cqb72ANzoJhiR4zShRxOQetPEmMg2T8nUvg+bvR42+2XY7PVIe3YuDhSsR/6+T9zebEMoO3PO8KDYiPauk0a9kRHjrpe1rk9rfe2pkEbbOyDAtRdIHID3V6I3cWNWPvbkpmNaXBRKy89hY1YeNmQkQwGwePkWbHghud3b1oj2s5sQE6Gbl9xbJYJOmSaIBFiG6QLOhJgIl97zvvpBpCMSE6Zgf8F62GyXkZmVpzt9trT8HCqranC0aLPuh6OO0H5PGH2nQAqRIvRpA7f2e0dLWy7fwbUjxE1tevImZkRERNT3eiQsavXmwcR//ecj+P3nB5CdnY3AwEC1vKKiAsuXL4ev/126U+W6orLa9XEPRqedaYOJCFZyyLRIQQXO3pe+NiEmos0eH5utHotTt2Bx6haX92Wz1aPWfrn1tYd5HC8pxYSYSLm424hla9dNDoYw+Ow8rXNfKyw6ifHRC2GCCfsL1sMaHIS8gtabnWxznob69PItSEtN1IW7jtIGIqMAIvdWidDXVi8XpH28tLzrvVy9JTFhCubNnoJ0zc2QxLMsU5JnwGoN0oXj3tDR8NfVfbw3zhohIiKivtUjYbEvr2N5bulM5O56FdnZ2S7lp06dwunTpzE0IEJ3B8HOkgNGWzpavz+YGBPZZs9g4uwpSJw9xSWE7cw5gNUZua3PmtOciisTjyjojPYc7IptbhQQPemPn5XN+aiVxcu3YE9uunqHy8ysPJSVn8MG5/jTy7dgUkyk25DWEdoAIj9j0IjN+QOBlrttqS1vz2fZ0/KcD7DfkbMfxzXX/xmxWoOwJzcd+fs+QV5B611eUzSn5HZFe7aLa0/5Ha3/GoR5WXt6H9tDGxL76rueiIiIel6PhEX08Q0QXt20EO+9l6cLjG+++SbOnz+PRiW4W057E89cE4wO7LQ9M+JgWz5Isxv0CGhPg3R3sN0bJsREuL2xB5whTNwwRrueK59tfXyA9po22cGiE5h4f8d6FbWhr7LKtWcXUm9vgObh8y6n7Rl89nLPVn/o2dUSvYl2ez2OfrRZ7blKz8iBCSY1OKZn5GC09Q6P2723dTSo95XEhClIS03ExJhI2O1X1Luiyqebak2Ni0bh4ROY2I09idrtZXQ6tE1zejW0P4ho/v7cfb9p5ydCZmf19vc6ERER9b4eCYviWhbxurcFWIbhl+mzce5//oSMjAyXaZs3b4bNdhmfFn/j8SCwPUKsrs9FNDpAc3c6ntE1R1qlmusUu3oqYVdNj4s2PH03JPgOLFpwPZQkzn4QkePGqP+2Jb8TvYra0/uMbjSiLdNub3c3vjEqkz/XviR6E+cv2IDnUxPV004rq2owOW4ZAi1+6p10M7PyYILJ5c66XaUNLtreLC2jXi7t9pNPuxaMAk9/EBEehmlxUepdUYs/LzUMjcdLSlFcUobduenYW/CJbnpnTdfcbEl7t1Oh8PD1H29CrEHqfq792ygtP6drd7yk1KWs0z3PJtfv9b74QZCIiIh6h0npxP/l5QAmPDR5NMbedSscDgcaGxtx5coV1NbWQjFZ8KOJ/4naS7+Fo+WK3KzHVFXV4L1D52A2D9Ktc3Z2Nv7x7df490d/gBDnLe8nxkR2+Fqj+Nmr1dM05yY8iNeyrt/lUTxnTlyruNt5IxI4e4DE3SMnxERgf8F6tR0AjI9eqLbblr20w6Gqu23MysPchCmGN4fpjMysPMxLmNLhIFxcUuZyB9YvTlx/DIO8vbXbTW63v2C9+lnb7PWY/PAytV1iwoPYpvkce9uOnP1ITJiCwsMnkJ6Ri8CAYeqz9qB5n08lx6s9iJlZeThUdBJHijZLc+uaHTn7sdp5R9vI8DDd/CuranBfzEJ1/GjRZkSEh6Gw6ATmL3gJcAbBs2f2alq1GjNunhpetJ9Hf2RzPn8zxHoHpsVFIa/gU1RV1ajB3GZvvQttd+w3Nns97oteqG6bRcnx6inG8j4u76va76NpcVHYnZuuzrM79vFbRsWj5MgbMCl2BAQEwN/fH76+vjCbzai+WIf3Dv5VbgIAWLZsmct15ETuxMbGqs9OFtasWYPbb7/dpR4R0c3kv//7v7Fq1SqMHDkSAHDp0iXY7XaMGDECFotFro6kpCTExsYiKSlJntRhPR4Wv/vuOygmC348aUGvh0U4e4z+X3kTTp8uw1tvveUyLTs7G99c+grNTTZszMpHiDUIX5TscqnTFjmErM9YgJTkeNjs9Xh6+RYccvZ0yfOW261MnYu01ETYnM+d0z6G4NSJXR0OVd2tOw+GS8vP4VDRyU73gGkPiK3WIKQ4ezd35BxQD4ZDrEE4WrTZ5To7bbsAyzDMTXgQEePCsDP3gNqzGGAZhqMfbe6z7Z2ZlYeNWfn4tvoDFJeUITMrD3s0j6s4XlKK+QtewksvJGOuMwhnZuUhv+BTtdexO5WWn0Vs3HJ1/EjRZpde2rx9n2Bx6quAtI/b7PUYM26eWk8Og9p27sJkf7QxKx+l5WcRGT5Gt/8Wl5ShtPxsl55pKWhDOpw/KIVYg3Dw8EmXZ1fKn7n8vWK1BmFiTIRLO3ThO+WWUfH4/Hc74WW6jICAAPj5+WHw4MHw8vJiWKRuYRQW6+rqUFdX51KPiOhmI4IiBkJYVBQFDQ0Nfd6zKOTt+xTf2AJx9OhRHDlyRC0PDAxEbGws3n//fQRYhmF/wfpOnZqlDSFwXpson7Jn1Du4OiMHOzShUAQCbdu01ETdQWlfKSs/h4NFJ5CW2vnn9lVW1WBH7n5syEiWJ7VblbN3xd1pf+4+y7baAcBr2UvVENbbtL1x31Z/AAC4fNUL5WeqYQ0Jwv4PDmJjVj5256arwaujQbGuXsHlegdG3jEYitIsTzak3b8jwsOwOzcdIcFBanAV++v6jGSXm7zIoX5/wXqEOE+h9dQ71ldET56nU2LzCj5F3r5PkJgwRff3DOff9MrURI/zaK+NWfnIzMqTiwEP+zjaaIcu7uOiZxEOG4YPHw4/Pz/2LFK3MgqLRETkasCExfr6ejUs9lXPorAjZz+GBkTgrbfewqlTp1ymGf1C3xE2ez1Wr80xvMtqgGUY0lIT3d5wRA6MWv0pKAo7cvYjIMDP8EC5PeYv2NDlZ//BGfwys/J023xCTAQ2ZCQbHkSjjXZpqYl9eiqk6FUUPW1/+3Yw7p88F6GhoTh16hRmxk/Hc0tmInxcMExmH7y+Ix+rM3JxtGgzIiPvAgAojiZ1fmbvoXA0X/97M3sPRcnJ/8HPlr6ML0p2tftvsaz8HCbHLXMpswYHuT4r1KAnt8p5XaX2Ojmjdl352+tOxSVlOF5SCru9HrX2eqSlJrqcdq099dTdadlVVTXYW/BJl35Q0cpz3m21zHkNojU4CNMfiUJKcrzHbVZWfhaZWfkQ1zxag4Mw8f4IpCyId/u30R7asBgYGMjTUKnbGYXFixcvutQhIroZ+fv7w9/fHxiIYRHmgG7tWRR3hTx7Zi+eXr4F+ZoD/xBrEObOfhDFJWXYX7AeTy/fAru9Hrtz07ExKx/RkxKwfPlyVFRUAN182mFxSRkKi06gtPwcQqxBCAm+AynJM9p85IBRu8SEB7tlnXrCxqw8TIuL7vBBZ2evU/TEbq9Hafk5BFiGIcQa1Oa21hIH4CHWoG5dp84SYVGczpn12sc4eOg4pk+dCHtdI6bFRaH8z5dQV9eIN998E/fddx8efvBujBlzF156pfUU6+1bV2Ho4GtYsmIXKisvIP7Rh7HsqcnI3VOCt/M+VINnR8IinDcOWq15rqBWpLO30WgblpWfw/wFGwzb9aegKKuqqkFewadQoCAtNbFD1yjOX7BBvVZwoBGnoZpRh8DAQAwbNgxDhgxhWKRuYxQWX375ZYSFdez/N0REA82ZM2fwwgsvAAMhLMo3uHHAv9t6Fo+XlOKZ1Fdhs7UGQNETdGvwTPVmJ5lZeSguKcOEmAjkF3zq0uPxyuZ3cfi3pS69i/3lNLgbSWZWHhINelbcyezkDYRuJuKmR+JGMl/9dx1WZ+TgyJEjmDx5Ml7f8hxe3vQbVFV/g9DQULz//vt4t+AtJC9ciqxfbcR3//gGu98uwE/nzcLBwiN4ZWMGZick4ZXMNXgo7id45+1XcezzL/Dhwd91OCzCGaCOl5SisOikGrKnxUV7fI6mkLfvE5d2EePCMC9hSofCfV8oKz+HHbn7ERJ8h66XX5xiK+/T7soHArln0WKxYPDgwQyL1G2MwuK2bdswf/58l3pERDebrKysPgmLPfLoDEH7CI3ukrfvU0yNi8LchAc9Pv+vrPwcNmblY1vWUpcD0orzF3Dq1Cn1tLmQ4CDk7fvU4zU+pJeSHI90Nz1NssysPIy23jEgD567k835vE2xvx7+7ZeIj5+Gsi/+D0JHB+PlTbvVuk0Nf8e9994Lm60eFRUV+N3vfotzFX9FfPx0lJb9FbW1tXjz1zmYOXMmTF5DAGd4mf7IRHUeHWW1BiExYQp256Zjf8F6bMta2q6gCOczDLXtUpLj+31QhPNZoABgsQyVJ2FCTAQKDb6DJsRE4HhJqVw8oJhMJvWRGd39HU9ERET9R4+GRWgOKrrLoaKTztM2TyJ/n/4aQSEgYBgSZz+I9IwctSw9Iwf5BZ+qp79FhIepN90QN4UoLDqJHTn72xWCbmYBlmF4LXtpm4Exr+BTmGDq9A01bibaa/sAICQ4CK+++joyf5WHD/YfxAOTfgwAqKioQP1Vb5w+fRp33+mPyQ9MwPnzFais+gaKoxGP/GskKioqYDJ74/3338fYOy2IjY3FT5N+judXZ7ksg9wTP3KIsw6M9nOLZZjuc4PBZzkQie/17vx+JyIiov6lx8Nid/7qXFh0AgEBw7AhI1l9nqH2LqRa1uAgrH8hGXZb66MoAGDe7CmY4HymobhOStylMcAyDBuz8nG8pBQpyfEo/nxg9wx0h7YC446c/S7XeZFn4q6iVdWtN+FpuPY1nlo0BwCQnrYIPxp/GwDgsXmzMOc/JqHsj+9hxG0OvP/OWiQmxCFx9oP4z5/+CFH/63v48L0sBI+6BQf/TzZ8vf+BV3/1FJ5aNAd7f/My9v7mZSiORpdlkysRFMWPHOK5l7JpcVGGvYshwUEDOjCyR5H6islkgre3t8vw+9//3uXymPr6ely4cEE3uPth48SJE/j1r3/tUma0nK+++gpPPPGE2/kQEQ1EPRoWxRdqdx1UhATfgfUZyZgQE4EJMRHYnZuu3qJ+W9YS9fX0uGikJMert5cX19WJnkT5hhrawLgz5wCOl5QiIMDPpQ4ZcxcYM7PyEBjgx6DYCZVVNdiYlY/Fy36FtFWZ2L1nH1auysT4qCSYvYYicPhwPPwvd2LIoNbnjjlaruLhf7kTP77vNjhargIAvhfkhdkz71XrjLrDFw9NHo0RtznwT2OGtPuxGTcjOSjCuZ+XnWl9FqdWZPgYlDqf0akVYBmGqir9DygDhfYU1O76fidqj6qqKkRERCAiIgLBwcH42c9+hnPnzrnch2DVqlWYMGECpk+f7jKYzdcPea5cuYKZM2di5syZSElJwYsvvqiOv/vuu7hw4QL8/PxchtLSUpw+fVqdBxHRzaBHwqI2JHbnaagR4WEu10hNiIlQ78iZmDBFDYvaeuI6q7ZEhIdhfUYyduemI9Di1+5rsaj1wHhPbjoKD59AYdFJ9WY2PPW0Y0KCgzAhJgLW4CB1X5ZF/fB7WPDY/XIxdROjoChY3fQWGn27Wa1BKD1zVi4eEERA7M7vdqL2slqtKCsrQ1lZGR5//HH1NvKyp59+GqdOnXIZWlpa1Ol+fn7YsWMHHn/8ccycOROzZs3CzJkzsXPnTkydOhWjRo2CzWaDzWbDmTNnAOezmYmIbjY9EhbFL8032oFEYsKDmBYX1eFHQlCrlOR4FB4+gcjwMbyZTSdsy16K/QXrcerELpw9sxffVn+Ac2f24tSJXdhfsB5HizZjzr/HdPguptQ+noIiAEyMiZSLAOcZDzKjsoFCGxIZGKm37du3D+Hh4fDz88Orr76KBx54AABw6tQpPP744y77pnwaqXZfdTgcOHbsGH75y19i1KhRuP/++3HkyBEsWrQIfn5+UBQFXl5eWLx4MS5fvgw4w2JtbS1eeeUVeHl5qfMiIhrIeiQsQhMYeYrSzWVbdvvvkElts1iGwersceSPGD1rely026AI55kMRj2+i5JnyEUIsQYhcXbbZzTc6Pj9Tr1t6tSp+Pzzz7Fp0yaEhoZi6tSpAIDQ0FCkp7c+3zQgIAB79uxRT1cVg/Y0VGhOpw4NDYXFYsHo0aNhs9lc6uzevRuVlZVISkqCw+EAAISEhHDfJ6KbRo+FRfElbDKZoIBfqkTUvzGMdw4Pmqk3WSwW5OXlYd26dcjLy1MDXGBgIO6++24oioJ169bh9OnTukHUFebMmYPhw4fjtddew6FDh7B161a8/vrrUBQFFy9eRHFxMQDg3LlzuP/++1FaWorAwEDMmTNHNy8iooGqx8Kilsnwqh4iIroRaa9LJ+pNhw8fxrZt23Do0CGMHTtWnoyPPvoIixcvNhzWrFmj1vvqq6+Qn58PRVEwevRoTJzY+gza4uJifPTRR6iursaePXswf/58fPnllzh//jyvWSSim1KPhEVxHYt2ICKiG5/Zy6x+r4vT+hgaqbfExcXhyy+/NAyKcN4AZ9KkSW4HwWaz4fz583j00UdhtVpRUVGB1atXo7a2FufPn0dUVBS2bt2qDitWrMCoUaNclkVEdDPokbAomEwmeHl5wcubF4ITEQ0E3l7e8PLygtncGhpxA97MjG5ciqLoTgGdOHEiXn75ZQDA2LFjkZCQYDg8/PDDapuoqCisWLHCcFi4cKHhDyCRkZHIz8+Xi4mIBjSTYvSN2Abtw2+1Hpo8GmPvuhWKoqCpqQnXrl1rvYuYOQARP0zE5W//LxwKHwZORHQjstw2AV/+37ehtNTCz88PQ4cOhY+PD8xmM6ov1uG9g3+VmwAAli1bxlP4qF1iY2ORkZGB2NhYtWzbtm2YP3++Sz0ioptNVlYWXnjhBQDApUuXYLfbMWLECFgsFrkqkpKSEBsbi6SkJHlSh/VIWASApqYmNDQ04OrVqzB5B+KuiP+QqxMR0Q3mz6XvwtH0HYYOHYrBgwfDx8cHJpOJYZG6BcMiEZGxARUWxWkijY2NaGxsxLVr19Ci+KDxWgMamxrR3NICxaFAgQITnHdLVZxPt9b+KxF3WG0duX7jHDEfUa4ozvlJd2WFm2tr5FOoFEWByexcluJhHs71VNfLuU7a19p5urw/uLbVrYN4A846EOslL0uzDeVtKdZFuwy1nvM96N6TRLs8wOA9tRaq08R6a5fh8nlqt5nRujina+cD7faDa3sxrp2vqK/bVgafm9Dm+8f1bQrN56NuY7NJfY9Gy1E/F4l2mu49aaa7fJbSthFc5qN9/62VdfPUjsNoG2j2MaN1B9zUkba3vJ3V5Rnssy7/SuT3o/0s1G3Bv391GS77TBf+/mECvL284OPj0xoOvU0YNMgLgwYNwqBBg+Dl5QUTwyJ1E4ZFIiJjAy4sKoqClpYWNDU1obm5GQ0NDWhublYHSAc/7flXbgMPB4PaOkbk6fLyPNWVydPdrZ/Rv0ZtjNppywV5neS62nJ0oD6k5QhifcRrs9kMxflZw8P83JXDzfsxeu9G78FdvbaWZTQPLaMyUQ437eV1EIzmI7hbjpbRfNvzXmXu1tPovcjj2uXKdbR1BbmeuzYwWC9P/8LDvLXTteXuyNPl5XmqK5Onu1s/o3+N2hi105YL8jrJdbXl6EB9SMsxOW9k4+V1PSB6e3urQVHc5IZhkboDwyIRkbEBFRbhPDBxOBxwOBxoaWlRB4fDAUUTMERd+eDE02opmqCi1VY7eKhjMpngcDjU9dDWM2ojl8njnmjfr7zcrmprvd1xV1esq/xvR4nPrCPvVfs+jIj1ac86tadOZ7V33nI9eby92mrn7rPUas+2a898PGnvPiNPb2u5Cv/+3Wprvd3xVFesmwiMXl5e8Pb2htlsdrnJDcMidQeGRSIiYwMuLMJ5UCQGbUgUB0jQHIiI+kYHLaKO9iBLrqstF+Pa+Wini9Ail2vJB29iuqfetM68F3fzMXotxkWZmIcnRsvRTtOS68lttPMyKpMZlcvzNWpvVMeIPM1ofp5eQ9oG8nvyRLscd3XldYHBOniqI8/XqExbbjTdaP6C0fs1moenchjsRzB4D0bvT7wW3K2r0brJdeXlyPPRTuff//VpWnI9uY1Ytsl5l2tRR0xnWKTuwLBIRGTshgqLL7/8Mq5duyYX68KioF2E9uBFvHZ3ACMfsLib1lXyvDwt16hMHu+ottqL7SPXaWs920O0a0/79tQR2lo37XuS18GovjvycrQ68hmJ6UoXeq2EjtR1x2geRmWeyNtY+9rdfDr6GbRVz2i6dlub+PffZnuxfeQ6ba1ne4h2ntqL5cvLk3kKi+5+YCSSMSwSERnrq7DYqecsjhgxQi7yyKT5RVqctiROaRLj2una05uMXhuNd2WQ5+VpuUZl8nhHh7baG20buZ3R9PYMol172renjlFdo3ba9+Tu3/YM8nK0g7t6RoOYLnpM3E1vz9CRuu4Go3kYlXkatNtBfi3X1bZpq45RfXeD0XTtthbj2vWT68mvjca7Msjz8rRcozJ5vKNDW+2Nto3czmh6ewbRzlN7sXztd3lHdPT/F0RERNR/dKpn8cSJEzh8+LBcjDGjA3D7rUPlYiIiGuDsdQ3401//IRdj/PjxmDVrllxMZIg9i0RExvqqZ7FTYfHatWvYvHmz4amoREREAq9XpI5gWCQiMtZXYbFTp6H6+vq6fJETERHJYmNjGRSJiIhuYJ0KiwAQHR2N8ePHy8VEREQYMWIEf1QkIiK6wXU6LALArFmzEB0dLRcTEdFNLDQ0tFtOfSEiIqK+1aWwCACPPPIIZs2axVONiIhucuIShaSkJPj6+sqTiYiI6AbTqRvcuHPq1Cl89dVXqK2t5c1viIhuEqGhoRgxYgTGjx/PkEhdwhvcEBEZ66sb3HRrWCQiIiLqLIZFIiJjfRUWu3waKhEREREREQ08DItERERERESkw7BIREREREREOgyLREREREREpMOwSERERERERDoMi0RERERERKTDsEhEREREREQ6DItERERERESkw7BIREREREREOgyLREREREREpMOwSERERERERDoMi0RERERERKTDsEhEREREREQ6DItERERERESkw7BIREREREREOgyLREREREREpMOwSERERERERDoMi0RERERERKTDsEhEREREREQ6DItERERERESkw7BIREREREREOgyLREREREREpMOwSERERERERDoMi0RERERERKTDsEhEREREREQ6DItERERERESkw7BIREREREREOgyLREREREREpMOwSERERERERDoMi0RERERERKTDsEhEREREREQ6DItERERERESkw7BIREREREREOgyLREREREREpMOwSERERERERDoMi0RERERERKTDsEhEREREREQ6DItERERERESkw7BIREREREREOgyLREREREREpMOwSERERERERDoMi0RERERERKTDsEhEREREREQ6DItERERERESkw7BIREREREREOgyLREREREREpMOwSERERERERDoMi0RERERERKTDsEhEREREREQ6DItERERERESkw7BIREREREREOgyLREREREREpMOwSERERERERDoMi0RERERERKTDsEhEREREREQ6DItERERERESkw7BIREREREREOgyLREREREREpMOwSERERERERDoMi0RERERERKTDsEhEREREREQ6DItERERERESkw7BIREREREREOgyLREREREREpMOwSERERERERDoMi0RERERERKTDsEhEREREREQ6DItERERERESkw7BIREREREREOgyLREREREREpMOwSERERERERDoMi0RERERERKTDsEhEREREREQ6DItERERERESkw7BIREREREREOgyLREREREREpMOwSERERERERDoMi0RERERERKTDsEhEREREREQ6DItERERERESkw7BIREREREREOgyLREREREREpMOwSERERERERDoMi0RERERERKTDsEhEREREREQ6DItERERERESkw7BIREREREREOgyLREREREREpMOwSERERERERDoMi0RERERERKTDsEhEREREREQ6DItERERERESkw7BIREREREREOgyLREREREREpMOwSERERERERDoMi0RERERERKTDsEhEREREREQ6DItERERERESkw7BIREREREREOgyLREREREREpMOwSERERERERDoMi0RERERERKTDsEhEREREREQ6DItERERERESkw7BIREREREREOgyLREREREREpMOwSERERERERDoMi0RERERERKTDsEhEREREREQ6DItERERERESkw7BIREREREREOiZFURS5kIiIiKi3xcbGIikpCbGxsWrZO++8g9mzZ7vUIyK62WRnZ+PZZ58FADQ0NMBkMsHX1xcOh0OuimXLlmHWrFlISkqSJ3UYwyIRERH1C0lJSTh69KhLWUBAAEaOHOlSRkR0s6moqMDVq1cBAOnp6fjXf/1XbNiwAb/97W/lqoAzXM6aNUsu7jCGRSIiIiIiItLhNYtERERERESkw7BIREREREREOgyLREREREREpMOwSERERERERDoMi0RERERERKTDsEhEREREREQ6DItERERERESkw7BIREREREREOgyLREREREREpMOwSERERERERDoMi0RERERERKTDsEhEREREREQ6DItERERERESkw7BIREREREREOgyLREREREREpMOwSERERERERDoMi0RERERERKTDsEhEREREREQ6DItERERERESkw7BIREREREREOv8fiyk1HSEV3/gAAAAASUVORK5CYII=;" vertex="1" parent="1">
          <mxGeometry x="70" y="40" width="907" height="714" as="geometry" />
        </mxCell>
        <mxCell id="V8umVKSYSAPdXaHAKpyf-18" style="edgeStyle=orthogonalEdgeStyle;rounded=0;orthogonalLoop=1;jettySize=auto;html=1;exitX=0.5;exitY=1;exitDx=0;exitDy=0;entryX=0.5;entryY=0;entryDx=0;entryDy=0;strokeWidth=4;endArrow=none;startFill=0;strokeColor=#CCCC00;" edge="1" parent="1" source="V8umVKSYSAPdXaHAKpyf-3" target="V8umVKSYSAPdXaHAKpyf-9">
          <mxGeometry relative="1" as="geometry" />
        </mxCell>
        <mxCell id="V8umVKSYSAPdXaHAKpyf-3" value="" style="rounded=0;whiteSpace=wrap;html=1;fillColor=none;strokeColor=none;" vertex="1" parent="1">
          <mxGeometry x="250" y="90" width="30" height="20" as="geometry" />
        </mxCell>
        <mxCell id="V8umVKSYSAPdXaHAKpyf-19" style="edgeStyle=orthogonalEdgeStyle;rounded=0;orthogonalLoop=1;jettySize=auto;html=1;exitX=1;exitY=0.5;exitDx=0;exitDy=0;entryX=0.5;entryY=0;entryDx=0;entryDy=0;strokeWidth=4;fillColor=#ffe6cc;strokeColor=#CC0000;endArrow=none;startFill=0;" edge="1" parent="1" source="V8umVKSYSAPdXaHAKpyf-5" target="V8umVKSYSAPdXaHAKpyf-8">
          <mxGeometry relative="1" as="geometry" />
        </mxCell>
        <mxCell id="V8umVKSYSAPdXaHAKpyf-5" value="" style="rounded=0;whiteSpace=wrap;html=1;fillColor=none;strokeColor=none;" vertex="1" parent="1">
          <mxGeometry x="414" y="90" width="30" height="20" as="geometry" />
        </mxCell>
        <mxCell id="V8umVKSYSAPdXaHAKpyf-20" style="edgeStyle=orthogonalEdgeStyle;rounded=0;orthogonalLoop=1;jettySize=auto;html=1;entryX=0;entryY=0.5;entryDx=0;entryDy=0;strokeWidth=4;fillColor=#fff2cc;strokeColor=#FF8000;endArrow=none;startFill=0;" edge="1" parent="1" target="V8umVKSYSAPdXaHAKpyf-7">
          <mxGeometry relative="1" as="geometry">
            <mxPoint x="450" y="270" as="sourcePoint" />
          </mxGeometry>
        </mxCell>
        <mxCell id="V8umVKSYSAPdXaHAKpyf-6" value="" style="rounded=0;whiteSpace=wrap;html=1;fillColor=none;strokeColor=none;" vertex="1" parent="1">
          <mxGeometry x="414" y="260" width="30" height="20" as="geometry" />
        </mxCell>
        <mxCell id="V8umVKSYSAPdXaHAKpyf-7" value="" style="rounded=0;whiteSpace=wrap;html=1;fillColor=none;strokeColor=none;" vertex="1" parent="1">
          <mxGeometry x="640" y="260" width="30" height="20" as="geometry" />
        </mxCell>
        <mxCell id="V8umVKSYSAPdXaHAKpyf-8" value="" style="rounded=0;whiteSpace=wrap;html=1;fillColor=none;strokeColor=none;" vertex="1" parent="1">
          <mxGeometry x="900" y="480" width="30" height="20" as="geometry" />
        </mxCell>
        <mxCell id="V8umVKSYSAPdXaHAKpyf-9" value="" style="rounded=0;whiteSpace=wrap;html=1;fillColor=none;strokeColor=none;" vertex="1" parent="1">
          <mxGeometry x="760" y="490" width="30" height="20" as="geometry" />
        </mxCell>
        <mxCell id="V8umVKSYSAPdXaHAKpyf-21" style="edgeStyle=orthogonalEdgeStyle;rounded=0;orthogonalLoop=1;jettySize=auto;html=1;exitX=1;exitY=0.5;exitDx=0;exitDy=0;entryX=0.5;entryY=0;entryDx=0;entryDy=0;strokeWidth=4;endArrow=none;startFill=0;strokeColor=#00CC00;" edge="1" parent="1" source="V8umVKSYSAPdXaHAKpyf-10" target="V8umVKSYSAPdXaHAKpyf-14">
          <mxGeometry relative="1" as="geometry" />
        </mxCell>
        <mxCell id="V8umVKSYSAPdXaHAKpyf-10" value="" style="rounded=0;whiteSpace=wrap;html=1;fillColor=none;strokeColor=none;" vertex="1" parent="1">
          <mxGeometry x="250" y="420" width="30" height="10" as="geometry" />
        </mxCell>
        <mxCell id="V8umVKSYSAPdXaHAKpyf-22" style="edgeStyle=orthogonalEdgeStyle;rounded=0;orthogonalLoop=1;jettySize=auto;html=1;exitX=1;exitY=0.5;exitDx=0;exitDy=0;entryX=0;entryY=0.5;entryDx=0;entryDy=0;strokeWidth=4;endArrow=none;startFill=0;strokeColor=#00CCCC;" edge="1" parent="1" source="V8umVKSYSAPdXaHAKpyf-11" target="V8umVKSYSAPdXaHAKpyf-15">
          <mxGeometry relative="1" as="geometry">
            <Array as="points">
              <mxPoint x="570" y="460" />
              <mxPoint x="570" y="565" />
            </Array>
          </mxGeometry>
        </mxCell>
        <mxCell id="V8umVKSYSAPdXaHAKpyf-11" value="" style="rounded=0;whiteSpace=wrap;html=1;fillColor=none;strokeColor=none;" vertex="1" parent="1">
          <mxGeometry x="430" y="450" width="30" height="20" as="geometry" />
        </mxCell>
        <mxCell id="V8umVKSYSAPdXaHAKpyf-23" style="edgeStyle=orthogonalEdgeStyle;rounded=0;orthogonalLoop=1;jettySize=auto;html=1;exitX=1;exitY=0.5;exitDx=0;exitDy=0;entryX=0;entryY=0.5;entryDx=0;entryDy=0;strokeWidth=4;endArrow=none;startFill=0;strokeColor=#0066CC;" edge="1" parent="1" source="V8umVKSYSAPdXaHAKpyf-12" target="V8umVKSYSAPdXaHAKpyf-16">
          <mxGeometry relative="1" as="geometry">
            <Array as="points">
              <mxPoint x="510" y="520" />
              <mxPoint x="510" y="645" />
            </Array>
          </mxGeometry>
        </mxCell>
        <mxCell id="V8umVKSYSAPdXaHAKpyf-12" value="" style="rounded=0;whiteSpace=wrap;html=1;fillColor=none;strokeColor=none;" vertex="1" parent="1">
          <mxGeometry x="430" y="510" width="30" height="20" as="geometry" />
        </mxCell>
        <mxCell id="V8umVKSYSAPdXaHAKpyf-24" style="edgeStyle=orthogonalEdgeStyle;rounded=0;orthogonalLoop=1;jettySize=auto;html=1;exitX=0.5;exitY=1;exitDx=0;exitDy=0;entryX=0.5;entryY=1;entryDx=0;entryDy=0;strokeWidth=4;endArrow=none;startFill=0;strokeColor=#9933FF;" edge="1" parent="1" source="V8umVKSYSAPdXaHAKpyf-13" target="V8umVKSYSAPdXaHAKpyf-17">
          <mxGeometry relative="1" as="geometry">
            <Array as="points">
              <mxPoint x="445" y="710" />
              <mxPoint x="777" y="710" />
            </Array>
          </mxGeometry>
        </mxCell>
        <mxCell id="V8umVKSYSAPdXaHAKpyf-13" value="" style="rounded=0;whiteSpace=wrap;html=1;fillColor=none;strokeColor=none;" vertex="1" parent="1">
          <mxGeometry x="430" y="575" width="30" height="20" as="geometry" />
        </mxCell>
        <mxCell id="V8umVKSYSAPdXaHAKpyf-14" value="" style="rounded=0;whiteSpace=wrap;html=1;fillColor=none;strokeColor=none;" vertex="1" parent="1">
          <mxGeometry x="625" y="528" width="30" height="10" as="geometry" />
        </mxCell>
        <mxCell id="V8umVKSYSAPdXaHAKpyf-15" value="" style="rounded=0;whiteSpace=wrap;html=1;fillColor=none;strokeColor=none;" vertex="1" parent="1">
          <mxGeometry x="625" y="560" width="30" height="10" as="geometry" />
        </mxCell>
        <mxCell id="V8umVKSYSAPdXaHAKpyf-16" value="" style="rounded=0;whiteSpace=wrap;html=1;fillColor=none;strokeColor=none;" vertex="1" parent="1">
          <mxGeometry x="625" y="640" width="30" height="10" as="geometry" />
        </mxCell>
        <mxCell id="V8umVKSYSAPdXaHAKpyf-17" value="" style="rounded=0;whiteSpace=wrap;html=1;fillColor=none;strokeColor=none;" vertex="1" parent="1">
          <mxGeometry x="762" y="528" width="30" height="10" as="geometry" />
        </mxCell>
        <mxCell id="V8umVKSYSAPdXaHAKpyf-25" value="" style="whiteSpace=wrap;html=1;fillColor=none;strokeWidth=2;strokeColor=#FF3399;" vertex="1" parent="1">
          <mxGeometry x="942" y="515" width="20" height="225" as="geometry" />
        </mxCell>
        <mxCell id="V8umVKSYSAPdXaHAKpyf-26" value="기존 카드 요소의&lt;div&gt;&lt;span style=&quot;background-color: transparent; color: light-dark(rgb(0, 0, 0), rgb(255, 255, 255));&quot;&gt;재정렬된&amp;nbsp;&lt;/span&gt;&lt;span style=&quot;background-color: transparent; color: light-dark(rgb(0, 0, 0), rgb(255, 255, 255));&quot;&gt;위치 정리&lt;/span&gt;&lt;/div&gt;" style="text;html=1;align=right;verticalAlign=middle;resizable=0;points=[];autosize=1;strokeColor=none;fillColor=none;fontSize=30;" vertex="1" parent="1">
          <mxGeometry x="134" y="630" width="280" height="90" as="geometry" />
        </mxCell>
      </root>
    </mxGraphModel>
  </diagram>
</mxfile>
